<?xml version="1.0" encoding="UTF-8"?>
<!DOCTYPE svg PUBLIC "-//W3C//DTD SVG 1.1//EN" "http://www.w3.org/Graphics/SVG/1.1/DTD/svg11.dtd">
<svg xmlns="http://www.w3.org/2000/svg" version="1.1" width="512px" height="512px" style="shape-rendering:geometricPrecision; text-rendering:geometricPrecision; image-rendering:optimizeQuality; fill-rule:evenodd; clip-rule:evenodd" xmlns:xlink="http://www.w3.org/1999/xlink">
<g><path style="opacity:0.988" fill="#46423d" d="M 384.5,494.5 C 382.745,491.564 380.745,488.731 378.5,486C 361.789,485.819 345.123,485.319 328.5,484.5C 261.792,485.416 195.126,485.583 128.5,485C 126.469,484.368 124.802,483.201 123.5,481.5C 123.709,480.914 124.043,480.414 124.5,480C 122.893,478.951 122.227,477.451 122.5,475.5C 119.098,423.322 138.098,381.655 179.5,350.5C 187.703,340.961 197.37,333.294 208.5,327.5C 179.029,310.938 161.029,285.938 154.5,252.5C 134.659,245.151 129.159,231.818 138,212.5C 140,210.5 142,208.5 144,206.5C 143.781,188.038 145.114,169.705 148,151.5C 151.042,139.868 155.542,128.868 161.5,118.5C 158.642,112.762 156.476,106.762 155,100.5C 154.333,94.1667 154.333,87.8333 155,81.5C 155.5,80.3333 156.333,79.5 157.5,79C 167.152,79.3652 176.819,79.3652 186.5,79C 203.318,76.4364 219.985,73.1031 236.5,69C 285.788,62.8495 323.954,80.3495 351,121.5C 358.26,134.281 362.927,147.947 365,162.5C 366.083,177.145 366.749,191.812 367,206.5C 379.313,217.983 380.646,230.65 371,244.5C 366.561,248.219 361.561,250.886 356,252.5C 350.083,286.401 331.916,311.234 301.5,327C 308.1,330.605 314.434,334.605 320.5,339C 330.197,348.274 340.03,357.44 350,366.5C 352.882,352.471 361.049,348.138 374.5,353.5C 375.666,338.511 375.833,323.511 375,308.5C 367.118,302.345 365.452,294.678 370,285.5C 372.365,282.131 375.532,279.964 379.5,279C 397.5,278.333 415.5,278.333 433.5,279C 445.473,284.126 448.64,292.626 443,304.5C 441.649,306.019 440.149,307.352 438.5,308.5C 437.5,327.822 437.167,347.155 437.5,366.5C 453.709,365.873 461.209,373.54 460,389.5C 459.227,392.211 458.06,394.711 456.5,397C 461.803,405.181 461.803,413.348 456.5,421.5C 462.607,431.5 461.607,440.667 453.5,449C 448.476,451.505 443.142,452.672 437.5,452.5C 437.666,461.173 437.5,469.84 437,478.5C 432.773,493.879 422.607,502.213 406.5,503.5C 397.985,503.221 390.651,500.221 384.5,494.5 Z"/></g>
<g><path style="opacity:1" fill="#dc9169" d="M 354.5,170.5 C 354.5,171.167 354.5,171.833 354.5,172.5C 333.211,125.339 296.544,102.839 244.5,105C 231.437,107.279 218.437,109.946 205.5,113C 195.256,114.946 184.922,115.779 174.5,115.5C 168.559,108.352 165.559,100.019 165.5,90.5C 188.295,90.553 210.629,87.3864 232.5,81C 279.601,72.9786 316.101,88.8119 342,128.5C 349.509,141.526 353.676,155.526 354.5,170.5 Z"/></g>
<g><path style="opacity:1" fill="#a76b4c" d="M 354.5,172.5 C 355.14,182.558 354.473,192.225 352.5,201.5C 350.097,201.607 348.264,200.607 347,198.5C 345.663,194.502 343.33,191.168 340,188.5C 339.934,177.095 339.267,165.762 338,154.5C 334.062,143.957 326.562,139.124 315.5,140C 274.077,154.146 232.744,153.979 191.5,139.5C 180.925,141.574 174.425,147.908 172,158.5C 171.667,168.5 171.333,178.5 171,188.5C 168.484,191.534 166.484,194.868 165,198.5C 162.544,200.211 159.877,201.544 157,202.5C 152.064,172.841 157.731,145.507 174,120.5C 174.494,118.866 174.66,117.199 174.5,115.5C 184.922,115.779 195.256,114.946 205.5,113C 218.437,109.946 231.437,107.279 244.5,105C 296.544,102.839 333.211,125.339 354.5,172.5 Z"/></g>
<g><path style="opacity:1" fill="#fecdbe" d="M 328.5,160.5 C 328.5,168.833 328.5,177.167 328.5,185.5C 279.833,185.5 231.167,185.5 182.5,185.5C 182.5,177.167 182.5,168.833 182.5,160.5C 183.428,155.071 186.595,151.738 192,150.5C 234.277,165.063 276.61,165.063 319,150.5C 324.367,151.702 327.534,155.035 328.5,160.5 Z"/></g>
<g><path style="opacity:0.978" fill="#45423c" d="M 396.5,157.5 C 412.377,159.26 417.544,167.593 412,182.5C 403.672,191.374 395.005,191.707 386,183.5C 379.87,170.776 383.37,162.109 396.5,157.5 Z"/></g>
<g><path style="opacity:1" fill="#dcf3f4" d="M 395.5,169.5 C 402.716,168.688 404.716,171.355 401.5,177.5C 394.793,178.772 392.793,176.105 395.5,169.5 Z"/></g>
<g><path style="opacity:1" fill="#6e5343" d="M 354.5,170.5 C 355.494,180.987 355.828,191.654 355.5,202.5C 354.209,202.737 353.209,202.404 352.5,201.5C 354.473,192.225 355.14,182.558 354.5,172.5C 354.5,171.833 354.5,171.167 354.5,170.5 Z"/></g>
<g><path style="opacity:0.976" fill="#45423c" d="M 426.5,182.5 C 445.312,181.811 454.145,190.811 453,209.5C 448.259,223.124 438.759,228.291 424.5,225C 410.331,217.754 406.498,206.92 413,192.5C 416.531,187.795 421.031,184.462 426.5,182.5 Z"/></g>
<g><path style="opacity:1" fill="#bb9a8e" d="M 182.5,160.5 C 182.5,168.833 182.5,177.167 182.5,185.5C 231.167,185.5 279.833,185.5 328.5,185.5C 328.5,177.167 328.5,168.833 328.5,160.5C 329.493,168.984 329.826,177.651 329.5,186.5C 280.167,186.5 230.833,186.5 181.5,186.5C 181.174,177.651 181.507,168.984 182.5,160.5 Z"/></g>
<g><path style="opacity:1" fill="#e1f9fa" d="M 428.5,193.5 C 441.42,194.058 445.087,200.058 439.5,211.5C 435.95,214.28 431.95,215.114 427.5,214C 421.891,210.723 420.058,205.89 422,199.5C 423.494,196.686 425.66,194.686 428.5,193.5 Z"/></g>
<g><path style="opacity:1" fill="#0cb5eb" d="M 333.5,197.5 C 307.491,197.167 281.491,197.5 255.5,198.5C 243.49,215.862 231.49,233.196 219.5,250.5C 205.867,248.587 192.201,246.754 178.5,245C 177.667,244.167 176.833,243.333 176,242.5C 175.333,228.167 175.333,213.833 176,199.5C 176.833,198.667 177.667,197.833 178.5,197C 230.335,196.168 282.002,196.335 333.5,197.5 Z"/></g>
<g><path style="opacity:1" fill="#49cdfd" d="M 333.5,197.5 C 334.458,197.953 335.292,198.619 336,199.5C 336.667,213.833 336.667,228.167 336,242.5C 335.167,243.333 334.333,244.167 333.5,245C 315.958,248.235 298.291,249.902 280.5,250C 275.481,247.157 270.814,243.824 266.5,240C 259.47,235.41 252.47,235.41 245.5,240C 241.186,243.824 236.519,247.157 231.5,250C 227.514,250.499 223.514,250.666 219.5,250.5C 231.49,233.196 243.49,215.862 255.5,198.5C 281.491,197.5 307.491,197.167 333.5,197.5 Z"/></g>
<g><path style="opacity:1" fill="#44413d" d="M 203.5,209.5 C 218.031,208.857 223.531,215.523 220,229.5C 214.072,236.245 207.238,237.245 199.5,232.5C 195.726,228.195 194.56,223.195 196,217.5C 197.69,213.979 200.19,211.312 203.5,209.5 Z"/></g>
<g><path style="opacity:1" fill="#45423d" d="M 297.5,209.5 C 310.986,208.152 316.82,214.152 315,227.5C 311.345,234.738 305.512,237.238 297.5,235C 290.241,231.307 287.741,225.474 290,217.5C 292.028,214.308 294.528,211.641 297.5,209.5 Z"/></g>
<g><path style="opacity:1" fill="#fbcbbc" d="M 163.5,211.5 C 164.833,221.833 164.833,232.167 163.5,242.5C 158.867,241.156 154.2,239.656 149.5,238C 142.555,230.3 142.888,222.966 150.5,216C 154.606,213.798 158.939,212.298 163.5,211.5 Z"/></g>
<g><path style="opacity:1" fill="#87726a" d="M 163.5,211.5 C 163.56,210.957 163.893,210.624 164.5,210.5C 165.666,222.152 165.833,233.819 165,245.5C 164.487,244.473 163.987,243.473 163.5,242.5C 164.833,232.167 164.833,221.833 163.5,211.5 Z"/></g>
<g><path style="opacity:1" fill="#786861" d="M 347.5,211.5 C 347.173,221.681 347.506,231.681 348.5,241.5C 348.44,242.043 348.107,242.376 347.5,242.5C 346.177,232.007 346.177,221.674 347.5,211.5 Z"/></g>
<g><path style="opacity:1" fill="#fccbbc" d="M 347.5,211.5 C 357.714,211.725 364.048,216.725 366.5,226.5C 364.836,236.669 358.836,241.669 348.5,241.5C 347.506,231.681 347.173,221.681 347.5,211.5 Z"/></g>
<g><path style="opacity:0.98" fill="#44403c" d="M 396.5,238.5 C 410.566,237.254 417.399,243.587 417,257.5C 411.463,270.059 402.63,272.893 390.5,266C 383.833,258 383.833,250 390.5,242C 392.432,240.541 394.432,239.375 396.5,238.5 Z"/></g>
<g><path style="opacity:1" fill="#fccbbc" d="M 187.5,257.5 C 185.645,258.69 183.812,260.023 182,261.5C 181.313,263.92 181.813,266.087 183.5,268C 190.042,271.68 196.209,271.18 202,266.5C 202.712,263.562 202.212,260.896 200.5,258.5C 210.723,260.736 221.056,261.57 231.5,261C 239.519,258.314 246.519,253.981 252.5,248C 255.303,247.245 257.97,247.578 260.5,249C 266.053,254.217 272.386,258.217 279.5,261C 284.5,261.667 289.5,261.667 294.5,261C 299.787,259.839 305.121,259.006 310.5,258.5C 306.905,264.016 308.239,267.85 314.5,270C 321.561,272.129 326.561,269.962 329.5,263.5C 328.62,260.542 326.62,258.709 323.5,258C 324.737,257.768 325.737,257.268 326.5,256.5C 333.527,256.994 339.36,254.661 344,249.5C 338.047,286.467 317.213,310.967 281.5,323C 240.388,333.186 206.888,321.686 181,288.5C 172.221,275.827 167.221,261.827 166,246.5C 170.91,254.424 178.077,258.091 187.5,257.5 Z"/></g>
<g><path style="opacity:1" fill="#d9f0f1" d="M 398.5,249.5 C 405.378,249.008 407.378,251.675 404.5,257.5C 397.23,258.982 395.23,256.315 398.5,249.5 Z"/></g>
<g><path style="opacity:1" fill="#feb59f" d="M 187.5,257.5 C 191.824,257.927 196.158,258.261 200.5,258.5C 202.212,260.896 202.712,263.562 202,266.5C 196.209,271.18 190.042,271.68 183.5,268C 181.813,266.087 181.313,263.92 182,261.5C 183.812,260.023 185.645,258.69 187.5,257.5 Z"/></g>
<g><path style="opacity:1" fill="#fbb49d" d="M 326.5,256.5 C 325.737,257.268 324.737,257.768 323.5,258C 326.62,258.709 328.62,260.542 329.5,263.5C 326.561,269.962 321.561,272.129 314.5,270C 308.239,267.85 306.905,264.016 310.5,258.5C 315.833,257.833 321.167,257.167 326.5,256.5 Z"/></g>
<g><path style="opacity:1" fill="#47423d" d="M 221.5,267.5 C 243.836,267.333 266.169,267.5 288.5,268C 294.469,270.103 296.636,274.27 295,280.5C 287.785,303.865 271.952,314.365 247.5,312C 229.941,307.109 219.274,295.775 215.5,278C 215.324,273.177 217.324,269.677 221.5,267.5 Z"/></g>
<g><path style="opacity:1" fill="#f86142" d="M 276.5,292.5 C 266.688,287.839 256.355,286.339 245.5,288C 241.526,288.994 237.86,290.494 234.5,292.5C 229.584,288.793 226.918,283.793 226.5,277.5C 245.833,277.5 265.167,277.5 284.5,277.5C 284.082,283.793 281.416,288.793 276.5,292.5 Z"/></g>
<g><path style="opacity:1" fill="#fca391" d="M 276.5,292.5 C 271.104,299.027 264.104,302.027 255.5,301.5C 246.896,302.027 239.896,299.027 234.5,292.5C 237.86,290.494 241.526,288.994 245.5,288C 256.355,286.339 266.688,287.839 276.5,292.5 Z"/></g>
<g><path style="opacity:1" fill="#7ed7f8" d="M 381.5,289.5 C 398.17,289.333 414.837,289.5 431.5,290C 434.978,292.706 435.311,295.706 432.5,299C 415.167,299.667 397.833,299.667 380.5,299C 377.675,295.476 378.008,292.31 381.5,289.5 Z"/></g>
<g><path style="opacity:1" fill="#7fdbfd" d="M 426.5,318.5 C 421.267,325.286 416.267,332.286 411.5,339.5C 403.167,339.5 394.833,339.5 386.5,339.5C 386.5,329.833 386.5,320.167 386.5,310.5C 399.833,310.5 413.167,310.5 426.5,310.5C 426.5,313.167 426.5,315.833 426.5,318.5 Z"/></g>
<g><path style="opacity:1" fill="#b6ebfe" d="M 426.5,318.5 C 426.5,325.5 426.5,332.5 426.5,339.5C 421.5,339.5 416.5,339.5 411.5,339.5C 416.267,332.286 421.267,325.286 426.5,318.5 Z"/></g>
<g><path style="opacity:1" fill="#ececec" d="M 220.5,335.5 C 222.159,346.964 223.159,358.631 223.5,370.5C 225.31,390.46 234.143,406.46 250,418.5C 250.831,425.524 250.664,432.524 249.5,439.5C 234.242,427.286 219.075,414.953 204,402.5C 205.508,394.133 207.508,385.799 210,377.5C 210.667,375.167 210.667,372.833 210,370.5C 203.833,365 197.667,359.5 191.5,354C 199.574,345.299 209.241,339.132 220.5,335.5 Z"/></g>
<g><path style="opacity:1" fill="#fdb49d" d="M 234.5,335.5 C 248.809,338.078 263.143,338.078 277.5,335.5C 277.5,336.833 277.5,338.167 277.5,339.5C 265.68,350.958 252.68,352.458 238.5,344C 235.156,342.106 233.822,339.273 234.5,335.5 Z"/></g>
<g><path style="opacity:1" fill="#ebebeb" d="M 287.5,334.5 C 299.879,338.189 310.546,344.689 319.5,354C 313.333,359.5 307.167,365 301,370.5C 300.333,373.5 300.333,376.5 301,379.5C 303.353,387.166 305.353,394.833 307,402.5C 291.925,414.953 276.758,427.286 261.5,439.5C 260.336,432.524 260.169,425.524 261,418.5C 273.833,408.845 282.166,396.179 286,380.5C 287.399,365.21 287.899,349.877 287.5,334.5 Z"/></g>
<g><path style="opacity:1" fill="#fbcbbc" d="M 234.5,335.5 C 233.822,339.273 235.156,342.106 238.5,344C 252.68,352.458 265.68,350.958 277.5,339.5C 278.948,359.884 269.615,369.384 249.5,368C 241.261,365.427 236.095,359.927 234,351.5C 233.183,345.984 233.349,340.65 234.5,335.5 Z"/></g>
<g><path style="opacity:1" fill="#fb85ac" d="M 387.5,350.5 C 387.334,358.174 387.5,365.841 388,373.5C 393.177,365.805 398.343,358.138 403.5,350.5C 411.167,350.5 418.833,350.5 426.5,350.5C 426.5,356.167 426.5,361.833 426.5,367.5C 408.589,366.672 401.423,375.006 405,392.5C 406.046,394.09 407.213,395.59 408.5,397C 401.902,405.303 401.902,413.637 408.5,422C 403.272,427.672 402.105,434.172 405,441.5C 409.8,449.816 416.967,453.149 426.5,451.5C 426.666,460.173 426.5,468.84 426,477.5C 421.038,489.565 412.204,494.065 399.5,491C 393.18,488.014 389.013,483.181 387,476.5C 386.169,434.331 386.335,392.331 387.5,350.5 Z"/></g>
<g><path style="opacity:1" fill="#ff6196" d="M 387.5,350.5 C 392.833,350.5 398.167,350.5 403.5,350.5C 398.343,358.138 393.177,365.805 388,373.5C 387.5,365.841 387.334,358.174 387.5,350.5 Z"/></g>
<g><path style="opacity:1" fill="#a3a2a0" d="M 220.5,335.5 C 221.209,334.596 222.209,334.263 223.5,334.5C 223.5,346.5 223.5,358.5 223.5,370.5C 223.159,358.631 222.159,346.964 220.5,335.5 Z"/></g>
<g><path style="opacity:1" fill="#dedede" d="M 198.5,378.5 C 167.666,394.498 146.333,418.831 134.5,451.5C 134.5,451.167 134.5,450.833 134.5,450.5C 137.591,413.441 153.924,383.774 183.5,361.5C 189.115,365.612 194.281,370.278 199,375.5C 199.47,376.577 199.303,377.577 198.5,378.5 Z"/></g>
<g><path style="opacity:1" fill="#dcdcdc" d="M 351.5,424.5 C 350.672,418.681 350.172,412.681 350,406.5C 339.316,394.591 326.816,385.258 312.5,378.5C 311.218,377.292 311.218,375.958 312.5,374.5C 317.205,369.793 322.205,365.46 327.5,361.5C 336.149,368.315 343.982,375.982 351,384.5C 351.5,397.829 351.667,411.163 351.5,424.5 Z"/></g>
<g><path style="opacity:1" fill="#02f2ba" d="M 375.5,370.5 C 375.5,374.167 375.5,377.833 375.5,381.5C 371.655,378.785 367.321,377.452 362.5,377.5C 362.5,372.833 362.5,368.167 362.5,363.5C 368.863,361.856 373.197,364.189 375.5,370.5 Z"/></g>
<g><path style="opacity:1" fill="#04d7a5" d="M 234.5,372.5 C 248.152,381.83 261.819,381.83 275.5,372.5C 275.138,387.882 268.471,399.882 255.5,408.5C 242.843,399.859 235.843,387.859 234.5,372.5 Z"/></g>
<g><path style="opacity:1" fill="#fefefe" d="M 198.5,378.5 C 196.827,385.524 194.994,392.524 193,399.5C 192.333,402.167 192.333,404.833 193,407.5C 212.312,422.319 231.146,437.652 249.5,453.5C 249.5,460.167 249.5,466.833 249.5,473.5C 228.833,473.5 208.167,473.5 187.5,473.5C 187.825,466.313 187.491,459.313 186.5,452.5C 184.483,448.411 181.483,447.578 177.5,450C 176.748,450.671 176.414,451.504 176.5,452.5C 175.509,459.313 175.175,466.313 175.5,473.5C 161.833,473.5 148.167,473.5 134.5,473.5C 134.5,466.167 134.5,458.833 134.5,451.5C 146.333,418.831 167.666,394.498 198.5,378.5 Z"/></g>
<g><path style="opacity:1" fill="#fefefe" d="M 312.5,378.5 C 326.816,385.258 339.316,394.591 350,406.5C 350.172,412.681 350.672,418.681 351.5,424.5C 353.988,437.652 361.654,445.986 374.5,449.5C 375.467,457.414 375.801,465.414 375.5,473.5C 362.167,473.5 348.833,473.5 335.5,473.5C 335.825,466.313 335.491,459.313 334.5,452.5C 332.979,448.777 330.313,447.777 326.5,449.5C 325.575,450.357 324.908,451.357 324.5,452.5C 323.509,459.313 323.175,466.313 323.5,473.5C 302.833,473.5 282.167,473.5 261.5,473.5C 261.5,466.833 261.5,460.167 261.5,453.5C 280.096,438.185 298.763,422.852 317.5,407.5C 318.022,406.393 318.355,405.226 318.5,404C 316.344,395.526 314.344,387.026 312.5,378.5 Z"/></g>
<g><path style="opacity:1" fill="#02d8a5" d="M 362.5,363.5 C 362.5,368.167 362.5,372.833 362.5,377.5C 367.321,377.452 371.655,378.785 375.5,381.5C 375.83,400.674 375.497,419.674 374.5,438.5C 368.086,435.916 363.92,431.249 362,424.5C 361.171,403.996 361.337,383.663 362.5,363.5 Z"/></g>
<g><path style="opacity:1" fill="#06ecb5" d="M 449.5,385.5 C 437.716,383.864 426.049,384.197 414.5,386.5C 414.22,383.728 414.887,381.228 416.5,379C 421.391,377.886 426.391,377.386 431.5,377.5C 435.833,377.667 440.167,377.833 444.5,378C 448.007,379.33 449.673,381.83 449.5,385.5 Z"/></g>
<g><path style="opacity:1" fill="#209376" d="M 375.5,370.5 C 376.829,393.337 376.829,416.337 375.5,439.5C 374.893,439.376 374.56,439.043 374.5,438.5C 375.497,419.674 375.83,400.674 375.5,381.5C 375.5,377.833 375.5,374.167 375.5,370.5 Z"/></g>
<g><path style="opacity:1" fill="#01daa7" d="M 449.5,385.5 C 449.262,388.148 447.928,389.982 445.5,391C 436.167,391.667 426.833,391.667 417.5,391C 415.859,389.871 414.859,388.371 414.5,386.5C 426.049,384.197 437.716,383.864 449.5,385.5 Z"/></g>
<g><path style="opacity:1" fill="#02d7a5" d="M 417.5,402.5 C 426.839,402.334 436.173,402.5 445.5,403C 450.833,407.333 450.833,411.667 445.5,416C 436.167,416.667 426.833,416.667 417.5,416C 413.541,411.501 413.541,407.001 417.5,402.5 Z"/></g>
<g><path style="opacity:1" fill="#0dd0a0" d="M 418.5,426.5 C 427.173,426.334 435.84,426.5 444.5,427C 449.038,428.713 450.538,431.88 449,436.5C 448.167,438.667 446.667,440.167 444.5,441C 435.833,441.667 427.167,441.667 418.5,441C 413.214,436.169 413.214,431.335 418.5,426.5 Z"/></g>
<g><path style="opacity:1" fill="#b2b1af" d="M 134.5,450.5 C 134.5,450.833 134.5,451.167 134.5,451.5C 134.5,458.833 134.5,466.167 134.5,473.5C 148.167,473.5 161.833,473.5 175.5,473.5C 175.175,466.313 175.509,459.313 176.5,452.5C 176.5,459.833 176.5,467.167 176.5,474.5C 162.167,474.5 147.833,474.5 133.5,474.5C 133.174,466.316 133.508,458.316 134.5,450.5 Z"/></g>
<g><path style="opacity:1" fill="#c1c0be" d="M 186.5,452.5 C 187.491,459.313 187.825,466.313 187.5,473.5C 208.167,473.5 228.833,473.5 249.5,473.5C 249.5,466.833 249.5,460.167 249.5,453.5C 250.491,460.313 250.825,467.313 250.5,474.5C 229.167,474.5 207.833,474.5 186.5,474.5C 186.5,467.167 186.5,459.833 186.5,452.5 Z"/></g>
<g><path style="opacity:1" fill="#c1c0be" d="M 324.5,452.5 C 324.5,459.833 324.5,467.167 324.5,474.5C 303.167,474.5 281.833,474.5 260.5,474.5C 260.175,467.313 260.509,460.313 261.5,453.5C 261.5,460.167 261.5,466.833 261.5,473.5C 282.167,473.5 302.833,473.5 323.5,473.5C 323.175,466.313 323.509,459.313 324.5,452.5 Z"/></g>
<g><path style="opacity:1" fill="#b3b2b0" d="M 374.5,449.5 C 376.468,457.433 377.135,465.766 376.5,474.5C 362.5,474.5 348.5,474.5 334.5,474.5C 334.5,467.167 334.5,459.833 334.5,452.5C 335.491,459.313 335.825,466.313 335.5,473.5C 348.833,473.5 362.167,473.5 375.5,473.5C 375.801,465.414 375.467,457.414 374.5,449.5 Z"/></g>
<g><path style="opacity:0.15" fill="#43423b" d="M 122.5,475.5 C 122.227,477.451 122.893,478.951 124.5,480C 124.043,480.414 123.709,480.914 123.5,481.5C 124.802,483.201 126.469,484.368 128.5,485C 195.126,485.583 261.792,485.416 328.5,484.5C 345.123,485.319 361.789,485.819 378.5,486C 380.745,488.731 382.745,491.564 384.5,494.5C 296.84,503.947 209.173,503.78 121.5,494C 113.23,493.013 105.23,491.013 97.5,488C 95.3985,486.267 95.0652,484.267 96.5,482C 104.864,478.627 113.531,476.46 122.5,475.5 Z"/></g>
</svg>
