<?xml version="1.0" encoding="UTF-8"?>
<!DOCTYPE svg PUBLIC "-//W3C//DTD SVG 1.1//EN" "http://www.w3.org/Graphics/SVG/1.1/DTD/svg11.dtd">
<svg xmlns="http://www.w3.org/2000/svg" version="1.1" width="512px" height="512px" style="shape-rendering:geometricPrecision; text-rendering:geometricPrecision; image-rendering:optimizeQuality; fill-rule:evenodd; clip-rule:evenodd" xmlns:xlink="http://www.w3.org/1999/xlink">
<g><path style="opacity:0.993" fill="#fefffe" d="M 247.5,44.5 C 265.543,43.3441 282.21,47.5108 297.5,57C 344.993,89.9137 392.66,122.58 440.5,155C 456.917,168.662 466.417,186.162 469,207.5C 469.667,272.167 469.667,336.833 469,401.5C 464.947,430.881 449.447,451.715 422.5,464C 415.744,466.685 408.744,468.351 401.5,469C 304.167,469.667 206.833,469.667 109.5,469C 80.1185,464.947 59.2852,449.447 47,422.5C 44.3154,415.744 42.6488,408.744 42,401.5C 41.3333,336.833 41.3333,272.167 42,207.5C 44.5833,186.162 54.0833,168.662 70.5,155C 121.488,119.838 172.821,85.1714 224.5,51C 232.071,48.0278 239.738,45.8611 247.5,44.5 Z M 198.5,373.5 C 236.501,373.333 274.501,373.5 312.5,374C 318.542,377.748 320.042,382.915 317,389.5C 315.786,391.049 314.286,392.215 312.5,393C 274.5,393.667 236.5,393.667 198.5,393C 192.458,389.252 190.958,384.085 194,377.5C 195.397,375.93 196.897,374.596 198.5,373.5 Z"/></g>
</svg>
