<svg version="1.1" id="Layer_1" xmlns="http://www.w3.org/2000/svg" xmlns:xlink="http://www.w3.org/1999/xlink" x="0px" y="0px"
	 width="100%" viewBox="0 0 578 431" enable-background="new 0 0 578 431" xml:space="preserve">
<path fill="#000000" opacity="1.000000" stroke="none" 
	d="
M304.000000,432.000000 
	C202.666687,432.000000 101.833382,432.000000 1.000054,432.000000 
	C1.000036,288.333405 1.000036,144.666779 1.000018,1.000131 
	C193.666565,1.000087 386.333130,1.000087 578.999756,1.000044 
	C578.999878,144.666519 578.999878,288.333038 578.999939,431.999786 
	C487.500000,432.000000 396.000000,432.000000 304.000000,432.000000 
M49.235378,316.421509 
	C46.652126,316.655701 43.873600,316.377106 41.539585,317.265869 
	C39.121559,318.186615 37.134506,320.239197 34.958965,321.796753 
	C37.270031,322.870941 39.575634,323.957275 41.899326,325.003387 
	C42.178955,325.129303 42.575798,324.969208 42.886005,325.056488 
	C58.775997,329.527924 75.246941,329.524902 91.422791,329.735443 
	C120.655632,330.115936 149.913101,328.712524 179.156662,327.920227 
	C181.122574,327.867004 183.058105,326.692627 185.186523,326.723877 
	C186.451614,327.482391 187.754349,328.185028 188.975800,329.008270 
	C198.042206,335.119324 210.639694,329.269592 213.410095,320.022461 
	C214.373260,316.807617 214.090347,313.122070 213.883179,309.681183 
	C213.671448,306.165009 214.847519,304.706390 218.422897,304.208740 
	C222.654907,303.619720 225.387589,301.547485 225.110428,296.318054 
	C224.674347,288.090607 224.977432,279.822662 225.010529,271.572052 
	C225.039291,264.401428 223.525299,262.257568 216.744278,260.084900 
	C215.863708,259.802765 214.978149,259.536255 214.029236,259.242126 
	C214.029236,250.278976 213.964539,241.621399 214.096741,232.966843 
	C214.117325,231.619202 214.751114,230.065277 215.587219,228.981659 
	C220.169296,223.043228 218.470200,217.348587 210.814331,214.207153 
	C203.786377,214.110336 196.757965,213.930069 189.730789,213.970032 
	C187.749496,213.981293 185.771866,214.637772 183.062195,214.903305 
	C176.428909,217.843277 175.036194,224.088699 179.640244,229.619736 
	C180.697693,230.890091 181.886032,232.602509 181.879913,234.106903 
	C181.859131,239.222122 181.237564,244.331528 181.032715,249.450653 
	C180.915405,252.382111 179.281372,253.313141 176.793655,252.984543 
	C172.227661,252.381439 168.373962,252.810364 167.560165,259.173004 
	C159.171295,252.199539 151.463074,245.791870 143.983292,239.574081 
	C155.743607,233.295090 164.902237,224.028549 169.020203,210.369873 
	C170.407990,205.766754 171.446838,201.408112 176.618027,198.741028 
	C182.839005,195.532501 185.125626,187.727844 180.026749,181.462906 
	C176.660263,177.326538 177.030975,173.183502 176.974396,168.730347 
	C176.940521,166.064331 177.116058,163.387573 176.939438,160.732803 
	C175.916153,145.352997 170.037094,131.997528 158.904984,121.421318 
	C149.850601,112.819092 138.919312,107.182289 126.264183,106.176170 
	C119.829193,105.664574 113.224365,105.866684 106.821213,106.702705 
	C96.625961,108.033852 86.553680,110.282433 76.388596,111.884102 
	C73.388847,112.356750 70.251625,111.956917 66.916756,111.956917 
	C66.916756,116.689392 65.611206,121.203911 67.188026,124.202972 
	C70.489830,130.482925 68.559204,135.296982 65.948563,140.927444 
	C61.444904,150.640625 61.746700,161.220596 62.074200,171.662231 
	C62.174404,174.856995 61.376724,177.180832 58.941601,179.519760 
	C52.951210,185.273422 54.763512,196.069046 62.285717,199.583054 
	C65.890625,201.267059 67.231544,203.790390 68.140984,207.430069 
	C70.836174,218.216476 75.875313,227.614502 85.474876,233.986908 
	C88.308411,235.867859 91.016357,237.937988 93.234604,239.528946 
	C87.784187,244.254990 82.391846,248.870758 77.065765,253.561768 
	C66.859856,262.550751 57.534813,272.346527 53.668121,285.775330 
	C50.838665,295.601807 49.245098,305.748901 49.235378,316.421509 
M199.993774,172.690674 
	C198.141647,178.365906 200.280060,185.149078 204.453430,186.837021 
	C209.612076,188.923477 219.355453,186.083832 220.966675,182.024353 
	C223.466339,175.726425 220.864761,168.103485 215.388046,165.678345 
	C210.173996,163.369522 202.756744,166.390594 199.993774,172.690674 
M187.432327,198.122147 
	C187.216324,198.912903 186.968872,199.696609 186.789749,200.495636 
	C186.017365,203.940933 186.432953,207.522781 189.751328,208.914856 
	C192.373550,210.014893 196.039902,210.247055 198.667618,209.288483 
	C201.718002,208.175766 204.263382,204.974121 202.858215,201.339508 
	C201.843033,198.713669 199.794632,195.809433 197.405716,194.553299 
	C193.922775,192.721909 190.352081,194.143188 187.432327,198.122147 
M201.616974,158.218094 
	C199.349396,153.652390 194.440109,151.565460 189.549789,153.088333 
	C186.928543,153.904602 184.913177,159.084412 185.821701,162.670090 
	C187.111755,167.761581 190.095657,169.763229 195.216095,168.971924 
	C199.018219,168.384354 202.022186,163.872192 201.616974,158.218094 
z"/>
<path fill="#494843" opacity="1.000000" stroke="none" 
	d="
M211.278473,214.989594 
	C218.470200,217.348587 220.169296,223.043228 215.587219,228.981659 
	C214.751114,230.065277 214.117325,231.619202 214.096741,232.966843 
	C213.964539,241.621399 214.029236,250.278976 214.029236,259.242126 
	C214.978149,259.536255 215.863708,259.802765 216.744278,260.084900 
	C223.525299,262.257568 225.039291,264.401428 225.010529,271.572052 
	C224.977432,279.822662 224.674347,288.090607 225.110428,296.318054 
	C225.387589,301.547485 222.654907,303.619720 218.422897,304.208740 
	C214.847519,304.706390 213.671448,306.165009 213.883179,309.681183 
	C214.090347,313.122070 214.373260,316.807617 213.410095,320.022461 
	C210.639694,329.269592 198.042206,335.119324 188.975800,329.008270 
	C187.754349,328.185028 186.451614,327.482391 184.972565,326.033966 
	C183.800613,321.894135 181.513016,321.122681 178.052917,321.133118 
	C137.523056,321.255432 96.992592,321.178009 56.462517,321.261749 
	C52.638020,321.269653 49.793262,320.774536 49.985950,316.092529 
	C49.245098,305.748901 50.838665,295.601807 53.668121,285.775330 
	C57.534813,272.346527 66.859856,262.550751 77.065765,253.561768 
	C82.391846,248.870758 87.784187,244.254990 93.234604,239.528946 
	C91.016357,237.937988 88.308411,235.867859 85.474876,233.986908 
	C75.875313,227.614502 70.836174,218.216476 68.140984,207.430069 
	C67.231544,203.790390 65.890625,201.267059 62.285717,199.583054 
	C54.763512,196.069046 52.951210,185.273422 58.941601,179.519760 
	C61.376724,177.180832 62.174404,174.856995 62.074200,171.662231 
	C61.746700,161.220596 61.444904,150.640625 65.948563,140.927444 
	C68.559204,135.296982 70.489830,130.482925 67.188026,124.202972 
	C65.611206,121.203911 66.916756,116.689392 66.916756,111.956917 
	C70.251625,111.956917 73.388847,112.356750 76.388596,111.884102 
	C86.553680,110.282433 96.625961,108.033852 106.821213,106.702705 
	C113.224365,105.866684 119.829193,105.664574 126.264183,106.176170 
	C138.919312,107.182289 149.850601,112.819092 158.904984,121.421318 
	C170.037094,131.997528 175.916153,145.352997 176.939438,160.732803 
	C177.116058,163.387573 176.940521,166.064331 176.974396,168.730347 
	C177.030975,173.183502 176.660263,177.326538 180.026749,181.462906 
	C185.125626,187.727844 182.839005,195.532501 176.618027,198.741028 
	C171.446838,201.408112 170.407990,205.766754 169.020203,210.369873 
	C164.902237,224.028549 155.743607,233.295090 143.983292,239.574081 
	C151.463074,245.791870 159.171295,252.199539 167.560165,259.173004 
	C168.373962,252.810364 172.227661,252.381439 176.793655,252.984543 
	C179.281372,253.313141 180.915405,252.382111 181.032715,249.450653 
	C181.237564,244.331528 181.859131,239.222122 181.879913,234.106903 
	C181.886032,232.602509 180.697693,230.890091 179.640244,229.619736 
	C175.036194,224.088699 176.428909,217.843277 183.911011,214.968018 
	C193.599380,215.018372 202.438934,215.003983 211.278473,214.989594 
M174.034180,261.499481 
	C174.082626,261.662720 174.131088,261.825989 174.036255,262.746094 
	C174.100250,263.510498 174.164246,264.274872 174.038223,265.953918 
	C174.024673,273.068298 173.634720,280.211426 174.174652,287.283539 
	C174.404800,290.297882 176.175430,293.452820 178.003342,296.000549 
	C179.328079,297.847015 181.614670,297.232819 181.615921,294.570557 
	C181.620102,285.682587 181.355927,276.794434 181.538773,267.185852 
	C181.463242,266.402374 181.387726,265.618927 181.531265,264.487152 
	C181.503662,264.187805 181.360611,263.961121 181.164368,263.061707 
	C180.417343,259.648651 178.827026,257.450958 174.675491,258.518555 
	C174.675491,258.518555 174.710922,258.853638 174.303436,259.501007 
	C174.259933,260.003296 174.216431,260.505554 174.034180,261.499481 
M201.373672,268.971863 
	C201.506958,269.434998 201.640228,269.898163 201.764252,270.722229 
	C201.764252,270.722229 201.962387,271.024078 202.272919,271.775116 
	C207.603149,271.735168 212.933365,271.695221 218.698486,271.323364 
	C218.791626,271.166595 218.884766,271.009796 219.411652,270.614441 
	C219.314255,270.033203 219.216843,269.451935 218.818375,268.160187 
	C215.794800,265.266022 205.005753,264.912323 201.967728,267.637451 
	C201.767181,267.817352 201.799667,268.257019 201.373672,268.971863 
M113.112976,315.503326 
	C114.000099,315.370575 115.657578,315.255646 115.661118,315.102448 
	C115.739655,311.705261 117.001419,307.096436 115.283531,305.153015 
	C111.637619,301.028381 106.421944,298.291321 101.213188,294.799622 
	C98.201927,292.276306 95.261353,289.661621 92.156006,287.259949 
	C89.864754,285.487885 86.113686,284.456604 85.292412,282.247772 
	C84.443138,279.963654 86.350037,276.657318 87.038834,273.795166 
	C87.115822,273.475281 87.111618,273.135834 87.730675,272.434418 
	C91.805275,265.109131 87.182724,261.360870 81.316452,257.651855 
	C67.931305,268.258209 58.831982,281.439087 56.693718,299.788422 
	C56.439083,304.246033 56.025177,308.705322 56.072056,313.159760 
	C56.080814,313.992279 57.936264,314.805328 59.550480,315.872620 
	C59.987968,315.907623 60.425457,315.942657 61.810410,316.007477 
	C65.094330,316.013794 68.380600,316.102661 71.661667,316.008972 
	C78.176750,315.822906 79.644936,313.214050 76.944435,306.115906 
	C78.232697,304.980927 79.520958,303.845917 80.809204,302.710907 
	C81.613327,303.927124 82.736275,305.046082 83.144218,306.383148 
	C83.706680,308.226685 83.729317,310.234894 84.115555,312.834961 
	C84.068520,313.506317 84.021484,314.177673 84.478951,315.546539 
	C93.773117,315.432831 103.067291,315.319122 113.112976,315.503326 
M69.501274,144.464661 
	C65.737083,152.350037 64.652245,160.507736 67.058029,169.805847 
	C67.055077,170.862274 67.052124,171.918716 66.554703,173.362183 
	C67.213371,174.685486 67.872040,176.008789 68.904472,178.083008 
	C66.977226,179.001846 65.025154,179.991028 63.026104,180.873825 
	C58.394073,182.919434 60.116375,187.084976 60.230225,190.385208 
	C60.273296,191.633896 62.764099,192.798172 64.847969,194.214600 
	C67.079903,194.734406 69.311844,195.254211 72.317940,195.954300 
	C71.851669,190.253235 71.427437,185.066010 70.997070,179.209747 
	C71.002823,177.497818 71.008568,175.785873 71.446899,173.706635 
	C71.904976,173.110672 72.363052,172.514694 73.508034,171.917923 
	C73.965942,170.925613 74.423859,169.933289 74.949814,168.295822 
	C75.017204,167.868652 75.084595,167.441467 75.838303,166.913986 
	C77.429161,166.612549 79.020027,166.311127 81.302933,166.564941 
	C83.289383,166.670105 85.275726,166.864624 87.262291,166.866776 
	C110.410019,166.891907 133.557785,166.888062 157.513046,166.953552 
	C159.299103,167.303650 161.085144,167.653763 163.312012,168.539459 
	C165.074738,170.489960 166.837463,172.440445 168.600204,174.390930 
	C169.074203,174.122711 169.548218,173.854492 170.022217,173.586273 
	C170.022217,168.739120 170.022217,163.891968 170.068787,158.193771 
	C169.703659,155.921326 169.461136,153.621185 168.954697,151.380676 
	C162.984879,124.970131 138.536713,108.085167 111.590515,111.939117 
	C104.040680,113.018936 96.580070,114.722656 88.598885,115.548805 
	C85.229988,115.577377 81.860329,115.665237 78.492340,115.622375 
	C71.149910,115.528946 69.680374,117.159241 71.094505,124.198235 
	C71.312347,125.282532 72.401123,126.226257 72.505264,127.291855 
	C72.724564,129.535782 72.849213,131.865860 72.482018,134.072281 
	C71.921188,137.442245 70.911270,140.737488 70.006599,144.039459 
	C70.006599,144.039459 70.090027,144.049973 69.501274,144.464661 
M128.764175,244.782043 
	C128.764175,244.782043 128.745712,244.698532 127.860054,244.565582 
	C125.072220,244.729065 122.286209,244.973602 119.496109,245.036270 
	C115.712349,245.121277 111.925461,245.066971 107.851036,245.915054 
	C107.360878,255.137787 110.792374,260.438568 117.657494,261.063416 
	C126.333870,261.853119 131.170303,255.417526 129.790009,244.577423 
	C129.464371,244.622238 129.138733,244.667068 128.764175,244.782043 
M126.530525,315.642273 
	C135.000870,315.443573 143.471222,315.244843 152.366592,314.909790 
	C152.366592,314.909790 152.799408,315.019012 153.638763,314.913086 
	C153.953461,311.972504 154.033981,308.978302 154.689468,306.115753 
	C154.982391,304.836578 156.429993,303.821808 157.353577,302.687042 
	C158.253250,303.849060 159.664444,304.899414 159.947372,306.196014 
	C160.558792,308.998047 160.591599,311.926270 161.356400,315.529297 
	C166.787903,315.700928 172.219025,315.947632 177.651260,315.975159 
	C178.631042,315.980133 180.003067,315.344360 180.530975,314.558838 
	C182.897446,311.037384 180.601105,303.661072 176.420410,302.208923 
	C171.907425,300.641327 169.846512,297.426636 169.114548,293.163818 
	C168.479187,289.463654 168.301254,285.684937 167.978836,281.021851 
	C169.843964,270.140564 165.431473,262.634369 155.648987,257.857422 
	C153.926880,259.363312 152.354431,260.839691 150.675735,262.183350 
	C147.906448,264.399872 147.145447,266.702118 150.130203,270.119354 
	C150.189835,270.604980 150.230759,271.093781 150.311844,271.575806 
	C152.084976,282.115204 154.425903,280.665924 145.877090,286.603363 
	C143.151108,288.496643 140.738724,290.841431 137.460297,292.883118 
	C133.661682,295.795197 130.106491,299.126099 126.001831,301.511536 
	C121.054382,304.386780 121.468216,308.723114 121.902306,313.111328 
	C121.975517,313.851440 124.117287,314.386902 125.644814,314.868805 
	C125.644814,314.868805 125.994461,314.996429 126.530525,315.642273 
M205.154541,231.142487 
	C199.264893,231.142487 193.375244,231.142487 187.287262,231.142487 
	C187.287262,236.191528 187.287262,240.610733 187.632660,245.779099 
	C194.176453,245.779099 200.720245,245.779099 207.740097,245.779099 
	C207.740097,242.118973 207.891571,238.672928 207.664551,235.251999 
	C207.575409,233.908722 206.639191,232.621658 205.154541,231.142487 
M187.060516,305.847687 
	C187.107040,307.903564 187.153564,309.959412 187.073639,312.498260 
	C187.073639,312.498260 187.203720,312.980255 187.094727,313.766937 
	C187.635544,320.965485 191.621506,325.206482 197.671555,325.020538 
	C203.537598,324.840240 207.437851,320.450989 207.735153,313.611847 
	C207.821640,311.622223 207.662079,309.621490 207.759338,307.632874 
	C207.881454,305.135590 206.888596,304.078186 204.300781,303.991089 
	C200.237122,303.854370 196.691299,301.717041 196.331055,297.778992 
	C195.754501,291.476471 196.398636,285.063202 196.507675,278.696411 
	C196.538940,276.870667 196.941620,274.906830 196.420364,273.242340 
	C194.638275,267.551483 196.989594,262.317932 202.275543,260.931854 
	C208.501877,259.299194 208.780609,258.778900 206.909485,252.143585 
	C202.645828,252.143585 198.355347,252.143585 193.178650,251.915741 
	C188.390839,250.960907 186.059357,252.577957 186.966721,257.742981 
	C187.216797,259.166565 187.214737,260.634430 187.169952,262.937744 
	C187.192429,264.967529 187.214920,266.997284 187.061356,269.666809 
	C187.119186,270.101349 187.177002,270.535919 187.103256,271.902649 
	C187.138596,281.946838 187.173920,291.991028 187.018280,302.756378 
	C187.071976,303.495300 187.125687,304.234192 187.060516,305.847687 
M100.943130,199.977249 
	C105.611061,201.199478 108.894859,198.471115 112.258636,195.997345 
	C117.609833,192.061966 120.780350,191.664871 125.680077,195.851822 
	C130.486008,199.958603 135.598679,200.704910 141.482391,199.716187 
	C146.403244,198.889252 151.376373,198.339447 156.343292,197.832855 
	C159.535446,197.507278 161.123489,196.186401 161.006210,192.744873 
	C160.824738,187.419144 161.219711,182.062164 160.801804,176.763275 
	C160.679321,175.210251 158.645584,172.546463 157.461823,172.532074 
	C144.328171,172.372437 131.189392,172.633942 117.171471,172.408035 
	C105.348846,172.350067 93.526237,172.291199 81.703606,172.234711 
	C78.699829,172.220352 77.069435,173.445251 77.141060,176.725128 
	C77.261040,182.219284 76.897919,187.739792 77.334877,193.201462 
	C77.463539,194.809586 79.421562,197.348907 80.855309,197.589478 
	C87.224258,198.658142 93.707306,199.046875 100.943130,199.977249 
M90.259605,204.348053 
	C87.881958,204.158768 85.504318,203.969467 82.472725,203.413803 
	C79.305122,202.288361 76.137520,201.162933 72.935249,199.645554 
	C72.768700,199.663040 72.602158,199.680511 72.435608,199.697983 
	C72.640450,199.782196 72.845291,199.866394 72.726852,200.735794 
	C75.745224,218.105331 85.749397,230.046768 101.913033,236.343887 
	C118.336082,242.742065 133.975311,240.177826 147.968994,229.442902 
	C157.396744,222.210648 163.042160,212.540146 165.072525,200.946457 
	C161.768051,201.893112 158.792007,202.745682 154.985260,203.553070 
	C152.352493,203.961777 149.719742,204.370468 146.183151,204.723892 
	C144.035019,204.929810 141.833298,204.904022 139.748978,205.385941 
	C133.950272,206.726700 128.736374,205.552979 124.469330,201.548767 
	C120.611626,197.928650 117.355896,198.355515 113.678780,201.690369 
	C109.470100,205.507324 104.502136,206.680298 98.862640,205.432632 
	C96.295021,204.864578 93.587250,204.930023 90.259605,204.348053 
M116.084709,290.680145 
	C115.189209,288.714203 114.770638,286.246002 113.318054,284.866791 
	C105.892479,277.816284 102.039589,269.346558 102.035637,259.116669 
	C102.033730,254.164383 102.035309,249.212082 102.035309,242.573090 
	C95.888359,246.367554 90.833748,249.487717 85.201363,252.964554 
	C88.678886,256.185059 91.464088,258.357697 93.689705,261.001434 
	C94.761246,262.274323 95.728249,264.913116 95.122154,266.118866 
	C90.123985,276.062073 94.089546,282.358337 102.753304,287.391815 
	C106.027481,289.294067 108.759300,292.124176 111.763786,294.499146 
	C112.944061,295.432098 114.193886,296.277069 116.085861,297.651703 
	C116.085861,294.860168 116.085861,293.202393 116.084709,290.680145 
M121.730804,294.969116 
	C121.861343,297.929932 123.186035,296.781677 124.459801,295.756622 
	C128.991257,292.109924 133.216644,287.971039 138.122513,284.929108 
	C144.631989,280.892731 146.894852,276.236755 143.223511,269.125305 
	C141.102081,265.016022 142.082336,261.573212 146.083374,258.891998 
	C148.205063,257.470184 149.953644,255.491516 152.762619,252.960526 
	C146.819733,249.337051 141.864166,246.315567 135.775574,242.603256 
	C135.775574,249.209885 135.797012,254.153717 135.770950,259.097321 
	C135.722351,268.311829 132.989304,276.730316 126.121117,282.879181 
	C122.381531,286.227173 121.254272,289.609802 121.730804,294.969116 
M120.997757,280.426392 
	C125.730515,276.102753 129.022690,271.050903 129.796066,263.115631 
	C122.143303,267.746063 115.227539,267.558929 107.900238,263.008240 
	C108.753494,271.310944 112.404068,276.767181 117.858063,281.148071 
	C118.351036,281.544037 119.598045,281.001251 120.997757,280.426392 
M193.579712,220.252518 
	C191.261230,220.252914 188.870377,219.909271 186.650131,220.376495 
	C185.207260,220.680099 184.013046,222.165253 182.707428,223.121017 
	C183.923386,223.986298 185.116470,225.560089 186.359070,225.600220 
	C193.637619,225.835251 200.931854,225.834274 208.210052,225.591278 
	C209.455582,225.549698 210.649399,223.958313 211.867096,223.082870 
	C210.567352,222.138748 209.323029,220.487473 207.957718,220.380493 
	C203.513474,220.032288 199.025009,220.248566 193.579712,220.252518 
M216.638000,298.726288 
	C217.612366,297.193878 219.620178,295.366608 219.289200,294.206635 
	C218.909164,292.874664 216.549606,291.519714 214.885284,291.269470 
	C211.821182,290.808655 208.553268,290.726166 205.535767,291.322906 
	C203.899200,291.646545 202.603729,293.695038 201.154404,294.965485 
	C202.572525,296.259979 203.845749,298.400848 205.438797,298.673615 
	C208.804077,299.249756 212.336578,298.849243 216.638000,298.726288 
M171.905670,181.458206 
	C170.235336,180.990036 168.565002,180.521866 166.722595,180.005463 
	C166.722595,185.425735 166.722595,190.161896 166.722595,194.947418 
	C170.925369,195.610474 174.165146,194.574829 175.668564,190.821716 
	C177.124405,187.187302 176.199509,183.938019 171.905670,181.458206 
M201.308868,283.224762 
	C203.693497,285.851288 215.436691,287.346924 217.900909,285.124481 
	C218.729889,284.376862 219.457245,282.626190 219.137497,281.719666 
	C218.733749,280.575104 217.272110,279.128265 216.160614,279.031525 
	C212.361038,278.700714 208.480072,278.613373 204.705933,279.065552 
	C203.427490,279.218750 202.374176,281.250977 201.308868,283.224762 
z"/>
<path fill="#DDDDDB" opacity="1.000000" stroke="none" 
	d="
M49.610664,316.257019 
	C49.793262,320.774536 52.638020,321.269653 56.462517,321.261749 
	C96.992592,321.178009 137.523056,321.255432 178.052917,321.133118 
	C181.513016,321.122681 183.800613,321.894135 184.883194,325.691895 
	C183.058105,326.692627 181.122574,327.867004 179.156662,327.920227 
	C149.913101,328.712524 120.655632,330.115936 91.422791,329.735443 
	C75.246941,329.524902 58.775997,329.527924 42.886005,325.056488 
	C42.575798,324.969208 42.178955,325.129303 41.899326,325.003387 
	C39.575634,323.957275 37.270031,322.870941 34.958958,321.796753 
	C37.134506,320.239197 39.121559,318.186615 41.539585,317.265869 
	C43.873600,316.377106 46.652126,316.655701 49.610664,316.257019 
z"/>
<path fill="#4C4B48" opacity="1.000000" stroke="none" 
	d="
M200.047470,172.297729 
	C202.756744,166.390594 210.173996,163.369522 215.388046,165.678345 
	C220.864761,168.103485 223.466339,175.726425 220.966675,182.024353 
	C219.355453,186.083832 209.612076,188.923477 204.453430,186.837021 
	C200.280060,185.149078 198.141647,178.365906 200.047470,172.297729 
M207.370880,171.612320 
	C204.223221,175.409210 204.184616,178.802917 207.432236,180.742874 
	C210.490677,182.569870 213.397461,181.901291 214.977081,178.824127 
	C215.729019,177.359329 215.786194,174.218063 214.861221,173.494781 
	C213.090729,172.110382 210.393112,171.911667 207.370880,171.612320 
z"/>
<path fill="#4C4B48" opacity="1.000000" stroke="none" 
	d="
M187.692719,197.840393 
	C190.352081,194.143188 193.922775,192.721909 197.405716,194.553299 
	C199.794632,195.809433 201.843033,198.713669 202.858215,201.339508 
	C204.263382,204.974121 201.718002,208.175766 198.667618,209.288483 
	C196.039902,210.247055 192.373550,210.014893 189.751328,208.914856 
	C186.432953,207.522781 186.017365,203.940933 186.789749,200.495636 
	C186.968872,199.696609 187.216324,198.912903 187.692719,197.840393 
z"/>
<path fill="#494843" opacity="1.000000" stroke="none" 
	d="
M201.739456,158.603775 
	C202.022186,163.872192 199.018219,168.384354 195.216095,168.971924 
	C190.095657,169.763229 187.111755,167.761581 185.821701,162.670090 
	C184.913177,159.084412 186.928543,153.904602 189.549789,153.088333 
	C194.440109,151.565460 199.349396,153.652390 201.739456,158.603775 
z"/>
<path fill="#999793" opacity="1.000000" stroke="none" 
	d="
M211.046402,214.598373 
	C202.438934,215.003983 193.599380,215.018372 184.276199,215.015518 
	C185.771866,214.637772 187.749496,213.981293 189.730789,213.970032 
	C196.757965,213.930069 203.786377,214.110336 211.046402,214.598373 
z"/>
<path fill="#A66B4D" opacity="1.000000" stroke="none" 
	d="
M75.151993,167.014297 
	C75.084595,167.441467 75.017204,167.868652 74.647667,168.782196 
	C73.837387,170.151962 73.329254,171.035339 72.821129,171.918716 
	C72.363052,172.514694 71.904976,173.110672 70.876221,173.882599 
	C69.220093,173.697433 68.134636,173.336288 67.049171,172.975159 
	C67.052124,171.918716 67.055077,170.862274 67.102150,168.998444 
	C68.127525,160.144028 69.108780,152.097000 70.090027,144.049973 
	C70.090027,144.049973 70.006599,144.039459 70.347008,143.887573 
	C72.830650,139.466034 74.973885,135.196381 77.529640,130.918350 
	C87.530426,129.283859 97.134636,127.745766 106.703590,126.013008 
	C125.665184,122.579422 142.836823,126.032173 156.505234,140.227219 
	C161.806961,145.733215 165.562378,152.728149 170.022217,159.044815 
	C170.022217,163.891968 170.022217,168.739120 170.022217,173.586273 
	C169.548218,173.854492 169.074203,174.122711 168.600204,174.390930 
	C166.837463,172.440445 165.074738,170.489960 163.119202,167.805084 
	C162.925980,163.085449 163.071335,159.093704 162.894272,155.116287 
	C162.543808,147.242462 155.344009,140.685364 149.525360,142.837326 
	C129.798538,150.133148 109.973846,149.857605 90.101311,143.565781 
	C82.366776,141.116959 75.467354,145.753403 75.063797,154.070969 
	C74.855034,158.373856 75.107765,162.699142 75.151993,167.014297 
z"/>
<path fill="#F6CABB" opacity="1.000000" stroke="none" 
	d="
M72.969917,200.037506 
	C76.137520,201.162933 79.305122,202.288361 82.592010,203.908447 
	C80.296532,206.465332 80.325340,208.289337 83.366882,209.589462 
	C87.537987,211.372421 90.624924,209.341583 90.943054,204.708130 
	C93.587250,204.930023 96.295021,204.864578 98.862640,205.432632 
	C104.502136,206.680298 109.470100,205.507324 113.678780,201.690369 
	C117.355896,198.355515 120.611626,197.928650 124.469330,201.548767 
	C128.736374,205.552979 133.950272,206.726700 139.748978,205.385941 
	C141.833298,204.904022 144.035019,204.929810 146.505020,205.088638 
	C147.476532,206.877182 147.930328,209.355606 148.813873,209.519699 
	C151.120697,209.948044 153.725250,209.687393 155.951431,208.934113 
	C156.450912,208.765106 155.889160,205.459732 155.815964,203.598251 
	C158.792007,202.745682 161.768051,201.893112 165.072525,200.946457 
	C163.042160,212.540146 157.396744,222.210648 147.968994,229.442902 
	C133.975311,240.177826 118.336082,242.742065 101.913033,236.343887 
	C85.749397,230.046768 75.745224,218.105331 72.868027,200.364532 
	C73.009201,199.993286 72.969917,200.037506 72.969917,200.037506 
M98.119415,215.277740 
	C98.573174,216.699875 98.903030,218.176514 99.500908,219.535233 
	C103.225021,227.998428 111.439323,232.821106 120.794769,232.110931 
	C129.404907,231.457321 136.913391,225.223129 139.164108,216.859131 
	C140.526474,211.796371 138.652557,208.945724 133.576279,208.884964 
	C123.763680,208.767471 113.948631,208.836136 104.134682,208.860992 
	C100.426506,208.870392 98.100365,210.467590 98.119415,215.277740 
z"/>
<path fill="#D7906A" opacity="1.000000" stroke="none" 
	d="
M170.045502,158.619293 
	C165.562378,152.728149 161.806961,145.733215 156.505234,140.227219 
	C142.836823,126.032173 125.665184,122.579422 106.703590,126.013008 
	C97.134636,127.745766 87.530426,129.283859 77.273560,130.683792 
	C74.913033,126.551994 73.221100,122.646378 71.421562,118.492355 
	C78.164642,117.594078 83.621590,116.867126 89.078537,116.140182 
	C96.580070,114.722656 104.040680,113.018936 111.590515,111.939117 
	C138.536713,108.085167 162.984879,124.970131 168.954697,151.380676 
	C169.461136,153.621185 169.703659,155.921326 170.045502,158.619293 
z"/>
<path fill="#F7CABB" opacity="1.000000" stroke="none" 
	d="
M156.705536,166.891861 
	C133.557785,166.888062 110.410019,166.891907 87.262291,166.866776 
	C85.275726,166.864624 83.289383,166.670105 81.024872,165.826447 
	C80.781792,161.590378 80.601921,158.074203 80.902748,154.599625 
	C81.340317,149.545593 84.238503,147.824051 89.058067,149.366699 
	C108.862221,155.705627 128.687195,155.654953 148.506760,149.460999 
	C153.531906,147.890564 156.560135,149.647141 156.892685,154.924606 
	C157.142822,158.894012 156.789963,162.901382 156.705536,166.891861 
z"/>
<path fill="#000000" opacity="1.000000" stroke="none" 
	d="
M76.877647,306.913971 
	C79.644936,313.214050 78.176750,315.822906 71.661667,316.008972 
	C68.380600,316.102661 65.094330,316.013794 61.370796,315.655762 
	C60.879795,314.859070 60.828411,314.414062 60.870781,313.522369 
	C60.979801,311.248749 60.713100,309.365265 61.065922,307.606018 
	C61.943420,303.230621 62.375637,298.548340 64.320213,294.655457 
	C67.239639,288.810913 71.298836,283.535736 75.015198,277.702362 
	C78.853912,274.561371 82.550819,271.736481 86.710976,268.557617 
	C86.916176,270.565613 87.030624,271.685547 87.145073,272.805481 
	C87.111618,273.135834 87.115822,273.475281 87.038834,273.795166 
	C86.350037,276.657318 84.443138,279.963654 85.292412,282.247772 
	C86.113686,284.456604 89.864754,285.487885 92.156006,287.259949 
	C95.261353,289.661621 98.201927,292.276306 101.611969,295.242798 
	C106.947334,301.301666 111.142494,307.301331 111.552994,315.009827 
	C102.046661,314.951050 93.010559,314.900024 83.974449,314.849030 
	C84.021484,314.177673 84.068520,313.506317 84.481644,312.426025 
	C86.127899,312.017090 87.408081,312.017090 89.316788,312.017090 
	C89.316788,308.694000 90.086067,305.470703 89.162445,302.842285 
	C86.997963,296.682709 77.601700,295.828278 71.504333,301.093689 
	C70.327728,302.109711 69.939079,304.038177 69.186935,305.545746 
	C71.143135,306.189636 73.080299,306.905945 75.068420,307.428406 
	C75.590385,307.565552 76.270271,307.101776 76.877647,306.913971 
z"/>
<path fill="#4EC9F4" opacity="1.000000" stroke="none" 
	d="
M118.051994,172.781677 
	C131.189392,172.633942 144.328171,172.372437 157.461823,172.532074 
	C158.645584,172.546463 160.679321,175.210251 160.801804,176.763275 
	C161.219711,182.062164 160.824738,187.419144 161.006210,192.744873 
	C161.123489,196.186401 159.535446,197.507278 156.343292,197.832855 
	C151.376373,198.339447 146.403244,198.889252 141.482391,199.716187 
	C135.598679,200.704910 130.486008,199.958603 125.680077,195.851822 
	C120.780350,191.664871 117.609833,192.061966 112.258636,195.997345 
	C108.894859,198.471115 105.611061,201.199478 100.700104,199.563873 
	C104.434433,193.752945 108.551247,188.450836 112.335510,182.921127 
	C114.518517,179.731216 116.164368,176.173721 118.051994,172.781677 
M136.608490,187.781509 
	C138.039215,191.198151 140.698349,193.637192 144.224930,192.390869 
	C146.570129,191.562057 149.092560,188.939835 149.895798,186.565567 
	C151.190933,182.737396 148.243500,179.361267 144.324875,178.893173 
	C139.389526,178.303619 136.750229,181.020309 136.608490,187.781509 
z"/>
<path fill="#F586AB" opacity="1.000000" stroke="none" 
	d="
M187.209229,302.035217 
	C187.173920,291.991028 187.138596,281.946838 187.349228,271.281311 
	C187.475922,270.115662 187.356659,269.571381 187.237396,269.027069 
	C187.214920,266.997284 187.192429,264.967529 187.569458,262.435120 
	C190.000931,258.669525 192.032898,255.406555 194.064850,252.143585 
	C198.355347,252.143585 202.645828,252.143585 206.909485,252.143585 
	C208.780609,258.778900 208.501877,259.299194 202.275543,260.931854 
	C196.989594,262.317932 194.638275,267.551483 196.420364,273.242340 
	C196.941620,274.906830 196.538940,276.870667 196.507675,278.696411 
	C196.398636,285.063202 195.754501,291.476471 196.331055,297.778992 
	C196.691299,301.717041 200.237122,303.854370 204.300781,303.991089 
	C206.888596,304.078186 207.881454,305.135590 207.759338,307.632874 
	C207.662079,309.621490 207.821640,311.622223 207.735153,313.611847 
	C207.437851,320.450989 203.537598,324.840240 197.671555,325.020538 
	C191.621506,325.206482 187.635544,320.965485 187.282410,313.280334 
	C187.644485,312.459900 187.554474,312.200439 187.200073,312.015289 
	C187.153564,309.959412 187.107040,307.903564 187.327728,305.215515 
	C187.466370,303.733948 187.337799,302.884583 187.209229,302.035217 
z"/>
<path fill="#000000" opacity="1.000000" stroke="none" 
	d="
M167.921173,281.940948 
	C168.301254,285.684937 168.479187,289.463654 169.114548,293.163818 
	C169.846512,297.426636 171.907425,300.641327 176.420410,302.208923 
	C180.601105,303.661072 182.897446,311.037384 180.530975,314.558838 
	C180.003067,315.344360 178.631042,315.980133 177.651260,315.975159 
	C172.219025,315.947632 166.787903,315.700928 161.125900,314.762543 
	C161.488617,312.252411 161.829697,310.365204 162.725601,308.794464 
	C164.831711,305.101898 164.739746,301.640167 160.937668,299.604645 
	C157.660187,297.849976 153.846985,297.046021 150.215515,296.016052 
	C146.237564,294.887756 142.196442,293.982239 138.182846,292.979614 
	C140.738724,290.841431 143.151108,288.496643 145.877090,286.603363 
	C154.425903,280.665924 152.084976,282.115204 150.311844,271.575806 
	C150.230759,271.093781 150.189835,270.604980 150.467102,269.604919 
	C151.555267,269.274017 152.485626,269.235870 153.029877,269.675598 
	C158.031738,273.716888 162.966721,277.840973 167.921173,281.940948 
z"/>
<path fill="#0BB0E1" opacity="1.000000" stroke="none" 
	d="
M117.611732,172.594849 
	C116.164368,176.173721 114.518517,179.731216 112.335510,182.921127 
	C108.551247,188.450836 104.434433,193.752945 100.303085,199.416016 
	C93.707306,199.046875 87.224258,198.658142 80.855309,197.589478 
	C79.421562,197.348907 77.463539,194.809586 77.334877,193.201462 
	C76.897919,187.739792 77.261040,182.219284 77.141060,176.725128 
	C77.069435,173.445251 78.699829,172.220352 81.703606,172.234711 
	C93.526237,172.291199 105.348846,172.350067 117.611732,172.594849 
M92.868469,178.992004 
	C87.198418,181.737854 85.673996,188.190002 90.369156,190.879486 
	C92.388245,192.036057 96.328133,192.335236 97.910629,191.108551 
	C99.770828,189.666595 100.948341,186.068268 100.742416,183.542007 
	C100.449295,179.945831 97.250366,178.652771 92.868469,178.992004 
z"/>
<path fill="#53463E" opacity="1.000000" stroke="none" 
	d="
M157.109283,166.922699 
	C156.789963,162.901382 157.142822,158.894012 156.892685,154.924606 
	C156.560135,149.647141 153.531906,147.890564 148.506760,149.460999 
	C128.687195,155.654953 108.862221,155.705627 89.058067,149.366699 
	C84.238503,147.824051 81.340317,149.545593 80.902748,154.599625 
	C80.601921,158.074203 80.781792,161.590378 80.678848,165.548828 
	C79.020027,166.311127 77.429161,166.612549 75.495148,166.964142 
	C75.107765,162.699142 74.855034,158.373856 75.063797,154.070969 
	C75.467354,145.753403 82.366776,141.116959 90.101311,143.565781 
	C109.973846,149.857605 129.798538,150.133148 149.525360,142.837326 
	C155.344009,140.685364 162.543808,147.242462 162.894272,155.116287 
	C163.071335,159.093704 162.925980,163.085449 162.898804,167.537292 
	C161.085144,167.653763 159.299103,167.303650 157.109283,166.922699 
z"/>
<path fill="#EAE9E8" opacity="1.000000" stroke="none" 
	d="
M116.085281,291.112366 
	C116.085861,293.202393 116.085861,294.860168 116.085861,297.651703 
	C114.193886,296.277069 112.944061,295.432098 111.763786,294.499146 
	C108.759300,292.124176 106.027481,289.294067 102.753304,287.391815 
	C94.089546,282.358337 90.123985,276.062073 95.122154,266.118866 
	C95.728249,264.913116 94.761246,262.274323 93.689705,261.001434 
	C91.464088,258.357697 88.678886,256.185059 85.201363,252.964554 
	C90.833748,249.487717 95.888359,246.367554 102.035309,242.573090 
	C102.035309,249.212082 102.033730,254.164383 102.035637,259.116669 
	C102.039589,269.346558 105.892479,277.816284 113.318054,284.866791 
	C114.770638,286.246002 115.189209,288.714203 116.085281,291.112366 
z"/>
<path fill="#EAE9E8" opacity="1.000000" stroke="none" 
	d="
M121.725578,294.541626 
	C121.254272,289.609802 122.381531,286.227173 126.121117,282.879181 
	C132.989304,276.730316 135.722351,268.311829 135.770950,259.097321 
	C135.797012,254.153717 135.775574,249.209885 135.775574,242.603256 
	C141.864166,246.315567 146.819733,249.337051 152.762619,252.960526 
	C149.953644,255.491516 148.205063,257.470184 146.083374,258.891998 
	C142.082336,261.573212 141.102081,265.016022 143.223511,269.125305 
	C146.894852,276.236755 144.631989,280.892731 138.122513,284.929108 
	C133.216644,287.971039 128.991257,292.109924 124.459801,295.756622 
	C123.186035,296.781677 121.861343,297.929932 121.725578,294.541626 
z"/>
<path fill="#F9F9F8" opacity="1.000000" stroke="none" 
	d="
M137.821564,292.931366 
	C142.196442,293.982239 146.237564,294.887756 150.215515,296.016052 
	C153.846985,297.046021 157.660187,297.849976 160.937668,299.604645 
	C164.739746,301.640167 164.831711,305.101898 162.725601,308.794464 
	C161.829697,310.365204 161.488617,312.252411 160.878250,314.399353 
	C160.591599,311.926270 160.558792,308.998047 159.947372,306.196014 
	C159.664444,304.899414 158.253250,303.849060 157.353577,302.687042 
	C156.429993,303.821808 154.982391,304.836578 154.689468,306.115753 
	C154.033981,308.978302 153.953461,311.972504 153.305939,314.577332 
	C154.032364,309.115112 149.159058,309.094147 146.674515,307.444611 
	C139.277603,302.533569 134.911728,302.291290 131.333984,306.312134 
	C129.004730,308.929871 127.292168,312.096283 125.303322,315.016907 
	C124.117287,314.386902 121.975517,313.851440 121.902306,313.111328 
	C121.468216,308.723114 121.054382,304.386780 126.001831,301.511536 
	C130.106491,299.126099 133.661682,295.795197 137.821564,292.931366 
z"/>
<path fill="#DDDDDB" opacity="1.000000" stroke="none" 
	d="
M87.437874,272.619934 
	C87.030624,271.685547 86.916176,270.565613 86.710976,268.557617 
	C82.550819,271.736481 78.853912,274.561371 74.653763,277.685913 
	C70.936073,281.294800 67.487465,284.412201 64.574142,287.968109 
	C61.755253,291.408783 59.487343,295.300812 56.977417,298.994598 
	C58.831982,281.439087 67.931305,268.258209 81.316452,257.651855 
	C87.182724,261.360870 91.805275,265.109131 87.437874,272.619934 
z"/>
<path fill="#83D8F6" opacity="1.000000" stroke="none" 
	d="
M187.287262,245.029922 
	C187.287262,240.610733 187.287262,236.191528 187.287262,231.142487 
	C193.375244,231.142487 199.264893,231.142487 205.742294,231.512299 
	C205.076965,242.607681 202.523712,244.991257 192.259903,245.017151 
	C190.602356,245.021332 188.944809,245.025650 187.287262,245.029922 
z"/>
<path fill="#11CEA1" opacity="1.000000" stroke="none" 
	d="
M120.746323,280.660400 
	C119.598045,281.001251 118.351036,281.544037 117.858063,281.148071 
	C112.404068,276.767181 108.753494,271.310944 107.900238,263.008240 
	C115.227539,267.558929 122.143303,267.746063 129.796066,263.115631 
	C129.022690,271.050903 125.730515,276.102753 120.746323,280.660400 
z"/>
<path fill="#DDDDDB" opacity="1.000000" stroke="none" 
	d="
M167.950012,281.481384 
	C162.966721,277.840973 158.031738,273.716888 153.029877,269.675598 
	C152.485626,269.235870 151.555267,269.274017 150.450195,269.217529 
	C147.145447,266.702118 147.906448,264.399872 150.675735,262.183350 
	C152.354431,260.839691 153.926880,259.363312 155.648987,257.857422 
	C165.431473,262.634369 169.843964,270.140564 167.950012,281.481384 
z"/>
<path fill="#11CEA1" opacity="1.000000" stroke="none" 
	d="
M181.194565,267.906372 
	C181.355927,276.794434 181.620102,285.682587 181.615921,294.570557 
	C181.614670,297.232819 179.328079,297.847015 178.003342,296.000549 
	C176.175430,293.452820 174.404800,290.297882 174.174652,287.283539 
	C173.634720,280.211426 174.024673,273.068298 174.431549,265.647400 
	C176.948105,266.196014 179.071335,267.051178 181.194565,267.906372 
z"/>
<path fill="#000000" opacity="1.000000" stroke="none" 
	d="
M125.474075,314.942871 
	C127.292168,312.096283 129.004730,308.929871 131.333984,306.312134 
	C134.911728,302.291290 139.277603,302.533569 146.674515,307.444611 
	C149.159058,309.094147 154.032364,309.115112 152.886261,314.630310 
	C152.799408,315.019012 152.366592,314.909790 151.689713,314.980957 
	C142.673370,315.033539 134.333923,315.014984 125.994461,314.996429 
	C125.994461,314.996429 125.644814,314.868805 125.474075,314.942871 
z"/>
<path fill="#F7CABB" opacity="1.000000" stroke="none" 
	d="
M129.730698,244.998215 
	C131.170303,255.417526 126.333870,261.853119 117.657494,261.063416 
	C110.792374,260.438568 107.360878,255.137787 108.231491,245.727570 
	C111.204399,253.206635 123.366287,252.723801 128.220215,247.909698 
	C128.843689,247.291336 128.591995,245.790543 128.745712,244.698532 
	C128.745712,244.698532 128.764175,244.782043 129.006744,244.857361 
	C129.249313,244.932663 129.730698,244.998215 129.730698,244.998215 
z"/>
<path fill="#7EC2D9" opacity="1.000000" stroke="none" 
	d="
M194.066635,220.250061 
	C199.025009,220.248566 203.513474,220.032288 207.957718,220.380493 
	C209.323029,220.487473 210.567352,222.138748 211.867096,223.082870 
	C210.649399,223.958313 209.455582,225.549698 208.210052,225.591278 
	C200.931854,225.834274 193.637619,225.835251 186.359070,225.600220 
	C185.116470,225.560089 183.923386,223.986298 182.707428,223.121017 
	C184.013046,222.165253 185.207260,220.680099 186.650131,220.376495 
	C188.870377,219.909271 191.261230,220.252914 194.066635,220.250061 
z"/>
<path fill="#F9F9F8" opacity="1.000000" stroke="none" 
	d="
M56.835571,299.391510 
	C59.487343,295.300812 61.755253,291.408783 64.574142,287.968109 
	C67.487465,284.412201 70.936073,281.294800 74.511955,278.002014 
	C71.298836,283.535736 67.239639,288.810913 64.320213,294.655457 
	C62.375637,298.548340 61.943420,303.230621 61.065922,307.606018 
	C60.713100,309.365265 60.979801,311.248749 60.598080,313.558167 
	C59.800911,314.569580 59.370201,315.098450 58.939491,315.627350 
	C57.936264,314.805328 56.080814,313.992279 56.072056,313.159760 
	C56.025177,308.705322 56.439083,304.246033 56.835571,299.391510 
z"/>
<path fill="#F9F9F8" opacity="1.000000" stroke="none" 
	d="
M76.911041,306.514954 
	C76.270271,307.101776 75.590385,307.565552 75.068420,307.428406 
	C73.080299,306.905945 71.143135,306.189636 69.186935,305.545746 
	C69.939079,304.038177 70.327728,302.109711 71.504333,301.093689 
	C77.601700,295.828278 86.997963,296.682709 89.162445,302.842285 
	C90.086067,305.470703 89.316788,308.694000 89.316788,312.017090 
	C87.408081,312.017090 86.127899,312.017090 84.415459,312.094849 
	C83.729317,310.234894 83.706680,308.226685 83.144218,306.383148 
	C82.736275,305.046082 81.613327,303.927124 80.809212,302.710907 
	C79.520958,303.845917 78.232697,304.980927 76.911041,306.514954 
z"/>
<path fill="#12C89A" opacity="1.000000" stroke="none" 
	d="
M216.219238,298.787811 
	C212.336578,298.849243 208.804077,299.249756 205.438797,298.673615 
	C203.845749,298.400848 202.572525,296.259979 201.154388,294.965485 
	C202.603729,293.695038 203.899200,291.646545 205.535767,291.322906 
	C208.553268,290.726166 211.821182,290.808655 214.885284,291.269470 
	C216.549606,291.519714 218.909164,292.874664 219.289200,294.206635 
	C219.620178,295.366608 217.612366,297.193878 216.219238,298.787811 
z"/>
<path fill="#EFC6B8" opacity="1.000000" stroke="none" 
	d="
M71.003197,179.878784 
	C71.427437,185.066010 71.851669,190.253235 72.317940,195.954300 
	C69.311844,195.254211 67.079903,194.734406 64.316772,193.799866 
	C59.728069,187.409897 61.074688,183.136826 67.712715,180.935760 
	C68.806145,180.573181 69.906197,180.230591 71.003197,179.878784 
z"/>
<path fill="#EFC6B8" opacity="1.000000" stroke="none" 
	d="
M172.248489,181.639130 
	C176.199509,183.938019 177.124405,187.187302 175.668564,190.821716 
	C174.165146,194.574829 170.925369,195.610474 166.722595,194.947418 
	C166.722595,190.161896 166.722595,185.425735 166.722595,180.005463 
	C168.565002,180.521866 170.235336,180.990036 172.248489,181.639130 
z"/>
<path fill="#11CEA1" opacity="1.000000" stroke="none" 
	d="
M201.263428,282.824646 
	C202.374176,281.250977 203.427490,279.218750 204.705933,279.065552 
	C208.480072,278.613373 212.361038,278.700714 216.160614,279.031525 
	C217.272110,279.128265 218.733749,280.575104 219.137497,281.719666 
	C219.457245,282.626190 218.729889,284.376862 217.900909,285.124481 
	C215.436691,287.346924 203.693497,285.851288 201.263428,282.824646 
z"/>
<path fill="#F0B3A0" opacity="1.000000" stroke="none" 
	d="
M128.302887,244.632050 
	C128.591995,245.790543 128.843689,247.291336 128.220215,247.909698 
	C123.366287,252.723801 111.204399,253.206635 108.375931,245.306259 
	C111.925461,245.066971 115.712349,245.121277 119.496109,245.036270 
	C122.286209,244.973602 125.072220,244.729065 128.302887,244.632050 
z"/>
<path fill="#53463E" opacity="1.000000" stroke="none" 
	d="
M88.838715,115.844498 
	C83.621590,116.867126 78.164642,117.594078 71.421562,118.492355 
	C73.221100,122.646378 74.913033,126.551994 76.861038,130.692169 
	C74.973885,135.196381 72.830650,139.466034 70.389717,143.900070 
	C70.911270,140.737488 71.921188,137.442245 72.482018,134.072281 
	C72.849213,131.865860 72.724564,129.535782 72.505264,127.291855 
	C72.401123,126.226257 71.312347,125.282532 71.094505,124.198235 
	C69.680374,117.159241 71.149910,115.528946 78.492340,115.622375 
	C81.860329,115.665237 85.229988,115.577377 88.838715,115.844498 
z"/>
<path fill="#F9F9F8" opacity="1.000000" stroke="none" 
	d="
M112.023209,315.017639 
	C111.142494,307.301331 106.947334,301.301666 101.930313,295.335693 
	C106.421944,298.291321 111.637619,301.028381 115.283531,305.153015 
	C117.001419,307.096436 115.739655,311.705261 115.661118,315.102448 
	C115.657578,315.255646 114.000099,315.370575 112.674110,315.269653 
	C112.235245,315.035950 112.023209,315.017639 112.023209,315.017639 
z"/>
<path fill="#AADAE8" opacity="1.000000" stroke="none" 
	d="
M187.459961,245.404510 
	C188.944809,245.025650 190.602356,245.021332 192.259903,245.017151 
	C202.523712,244.991257 205.076965,242.607681 206.209381,231.595551 
	C206.639191,232.621658 207.575409,233.908722 207.664551,235.251999 
	C207.891571,238.672928 207.740097,242.118973 207.740097,245.779099 
	C200.720245,245.779099 194.176453,245.779099 187.459961,245.404510 
z"/>
<path fill="#15E2AF" opacity="1.000000" stroke="none" 
	d="
M218.977905,270.853027 
	C218.884766,271.009796 218.791626,271.166595 218.235123,271.088287 
	C212.501968,270.910156 207.232178,270.967102 201.962387,271.024048 
	C201.962387,271.024078 201.764252,270.722229 201.804108,270.093079 
	C201.803879,269.167877 201.763809,268.871857 201.723755,268.575867 
	C201.799667,268.257019 201.767181,267.817352 201.967728,267.637451 
	C205.005753,264.912323 215.794800,265.266022 218.909561,268.843567 
	C218.993134,269.968964 218.985519,270.410980 218.977905,270.853027 
z"/>
<path fill="#53463E" opacity="1.000000" stroke="none" 
	d="
M71.000137,179.544266 
	C69.906197,180.230591 68.806145,180.573181 67.712715,180.935760 
	C61.074688,183.136826 59.728069,187.409897 63.962372,193.693024 
	C62.764099,192.798172 60.273296,191.633896 60.230225,190.385208 
	C60.116375,187.084976 58.394073,182.919434 63.026104,180.873825 
	C65.025154,179.991028 66.977226,179.001846 68.904472,178.083008 
	C67.872040,176.008789 67.213371,174.685486 66.801941,173.168671 
	C68.134636,173.336288 69.220093,173.697433 70.659927,174.066254 
	C71.008568,175.785873 71.002823,177.497818 71.000137,179.544266 
z"/>
<path fill="#F0B3A0" opacity="1.000000" stroke="none" 
	d="
M155.400604,203.575653 
	C155.889160,205.459732 156.450912,208.765106 155.951431,208.934113 
	C153.725250,209.687393 151.120697,209.948044 148.813873,209.519699 
	C147.930328,209.355606 147.476532,206.877182 146.956940,205.116272 
	C149.719742,204.370468 152.352493,203.961777 155.400604,203.575653 
z"/>
<path fill="#15E2AF" opacity="1.000000" stroke="none" 
	d="
M181.366669,267.546112 
	C179.071335,267.051178 176.948105,266.196014 174.526550,265.190063 
	C174.164246,264.274872 174.100250,263.510498 174.245178,262.273041 
	C174.635498,261.457642 174.541779,261.193573 174.172913,261.007843 
	C174.216431,260.505554 174.259933,260.003296 174.532562,259.153503 
	C174.761673,258.806000 174.855896,258.684448 174.855896,258.684448 
	C178.827026,257.450958 180.417343,259.648651 181.117188,263.615845 
	C181.092529,264.412994 181.173264,264.634827 181.312195,264.835449 
	C181.387726,265.618927 181.463242,266.402374 181.366669,267.546112 
z"/>
<path fill="#F0B3A0" opacity="1.000000" stroke="none" 
	d="
M90.601334,204.528091 
	C90.624924,209.341583 87.537987,211.372421 83.366882,209.589462 
	C80.325340,208.289337 80.296532,206.465332 82.918991,204.091614 
	C85.504318,203.969467 87.881958,204.158768 90.601334,204.528091 
z"/>
<path fill="#E17095" opacity="1.000000" stroke="none" 
	d="
M193.621750,252.029663 
	C192.032898,255.406555 190.000931,258.669525 187.648682,262.007233 
	C187.214737,260.634430 187.216797,259.166565 186.966721,257.742981 
	C186.059357,252.577957 188.390839,250.960907 193.621750,252.029663 
z"/>
<path fill="#53463E" opacity="1.000000" stroke="none" 
	d="
M69.795654,144.257324 
	C69.108780,152.097000 68.127525,160.144028 67.076126,168.602997 
	C64.652245,160.507736 65.737083,152.350037 69.795654,144.257324 
z"/>
<path fill="#12C89A" opacity="1.000000" stroke="none" 
	d="
M202.117645,271.399597 
	C207.232178,270.967102 212.501968,270.910156 218.017670,271.254272 
	C212.933365,271.695221 207.603149,271.735168 202.117645,271.399597 
z"/>
<path fill="#999793" opacity="1.000000" stroke="none" 
	d="
M111.552994,315.009827 
	C112.023209,315.017639 112.235245,315.035950 112.298355,315.120667 
	C103.067291,315.319122 93.773117,315.432831 84.226700,315.197784 
	C93.010559,314.900024 102.046661,314.951050 111.552994,315.009827 
z"/>
<path fill="#999793" opacity="1.000000" stroke="none" 
	d="
M126.262497,315.319336 
	C134.333923,315.014984 142.673370,315.033539 151.477203,315.049133 
	C143.471222,315.244843 135.000870,315.443573 126.262497,315.319336 
z"/>
<path fill="#53463E" opacity="1.000000" stroke="none" 
	d="
M73.164581,171.918320 
	C73.329254,171.035339 73.837387,170.151962 74.613647,169.104782 
	C74.423859,169.933289 73.965942,170.925613 73.164581,171.918320 
z"/>
<path fill="#DDDDDB" opacity="1.000000" stroke="none" 
	d="
M59.244987,315.750000 
	C59.370201,315.098450 59.800911,314.569580 60.504326,314.004883 
	C60.828411,314.414062 60.879795,314.859070 60.897060,315.640869 
	C60.425457,315.942657 59.987968,315.907623 59.244987,315.750000 
z"/>
<path fill="#E17095" opacity="1.000000" stroke="none" 
	d="
M187.113754,302.395813 
	C187.337799,302.884583 187.466370,303.733948 187.387161,304.778198 
	C187.125687,304.234192 187.071976,303.495300 187.113754,302.395813 
z"/>
<path fill="#E17095" opacity="1.000000" stroke="none" 
	d="
M187.149384,269.346924 
	C187.356659,269.571381 187.475922,270.115662 187.415009,270.815216 
	C187.177002,270.535919 187.119186,270.101349 187.149384,269.346924 
z"/>
<path fill="#12C89A" opacity="1.000000" stroke="none" 
	d="
M219.194778,270.733734 
	C218.985519,270.410980 218.993134,269.968964 219.060089,269.198792 
	C219.216843,269.451935 219.314255,270.033203 219.194778,270.733734 
z"/>
<path fill="#11CEA1" opacity="1.000000" stroke="none" 
	d="
M174.103546,261.253662 
	C174.541779,261.193573 174.635498,261.457642 174.316818,261.894623 
	C174.131088,261.825989 174.082626,261.662720 174.103546,261.253662 
z"/>
<path fill="#F0B3A0" opacity="1.000000" stroke="none" 
	d="
M129.760345,244.787811 
	C129.730698,244.998215 129.249313,244.932663 129.031204,244.822266 
	C129.138733,244.667068 129.464371,244.622238 129.760345,244.787811 
z"/>
<path fill="#12C89A" opacity="1.000000" stroke="none" 
	d="
M201.548706,268.773865 
	C201.763809,268.871857 201.803879,269.167877 201.808716,269.912598 
	C201.640228,269.898163 201.506958,269.434998 201.548706,268.773865 
z"/>
<path fill="#11CEA1" opacity="1.000000" stroke="none" 
	d="
M174.765686,258.601501 
	C174.855896,258.684448 174.761673,258.806000 174.736298,258.829834 
	C174.710922,258.853638 174.675491,258.518555 174.765686,258.601501 
z"/>
<path fill="#11CEA1" opacity="1.000000" stroke="none" 
	d="
M181.421722,264.661316 
	C181.173264,264.634827 181.092529,264.412994 181.086060,263.988525 
	C181.360611,263.961121 181.503662,264.187805 181.421722,264.661316 
z"/>
<path fill="#E17095" opacity="1.000000" stroke="none" 
	d="
M187.136856,312.256775 
	C187.554474,312.200439 187.644485,312.459900 187.336914,312.886993 
	C187.203720,312.980255 187.073639,312.498260 187.136856,312.256775 
z"/>
<path fill="#F6CABB" opacity="1.000000" stroke="none" 
	d="
M73.029663,199.971954 
	C72.845291,199.866394 72.640450,199.782196 72.435608,199.697983 
	C72.602158,199.680511 72.768700,199.663040 72.952583,199.841522 
	C72.969917,200.037506 73.009201,199.993286 73.029663,199.971954 
z"/>
<path fill="#DBEFED" opacity="1.000000" stroke="none" 
	d="
M207.725555,171.416626 
	C210.393112,171.911667 213.090729,172.110382 214.861221,173.494781 
	C215.786194,174.218063 215.729019,177.359329 214.977081,178.824127 
	C213.397461,181.901291 210.490677,182.569870 207.432236,180.742874 
	C204.184616,178.802917 204.223221,175.409210 207.725555,171.416626 
z"/>
<path fill="#53443C" opacity="1.000000" stroke="none" 
	d="
M98.081879,214.878815 
	C98.100365,210.467590 100.426506,208.870392 104.134682,208.860992 
	C113.948631,208.836136 123.763680,208.767471 133.576279,208.884964 
	C138.652557,208.945724 140.526474,211.796371 139.164108,216.859131 
	C136.913391,225.223129 129.404907,231.457321 120.794769,232.110931 
	C111.439323,232.821106 103.225021,227.998428 99.500908,219.535233 
	C98.903030,218.176514 98.573174,216.699875 98.081879,214.878815 
M130.783310,220.824570 
	C131.921982,218.971313 133.060654,217.118073 134.645935,214.537964 
	C123.728668,214.537964 114.065720,214.537964 102.977821,214.537964 
	C104.952400,217.348053 106.280060,219.237503 107.876472,221.792419 
	C114.636696,228.703430 124.444046,228.425125 130.783310,220.824570 
z"/>
<path fill="#3E4B4D" opacity="1.000000" stroke="none" 
	d="
M136.500015,187.420319 
	C136.750229,181.020309 139.389526,178.303619 144.324875,178.893173 
	C148.243500,179.361267 151.190933,182.737396 149.895798,186.565567 
	C149.092560,188.939835 146.570129,191.562057 144.224930,192.390869 
	C140.698349,193.637192 138.039215,191.198151 136.500015,187.420319 
z"/>
<path fill="#3E4B4D" opacity="1.000000" stroke="none" 
	d="
M93.275917,178.957581 
	C97.250366,178.652771 100.449295,179.945831 100.742416,183.542007 
	C100.948341,186.068268 99.770828,189.666595 97.910629,191.108551 
	C96.328133,192.335236 92.388245,192.036057 90.369156,190.879486 
	C85.673996,188.190002 87.198418,181.737854 93.275917,178.957581 
z"/>
<path fill="#E66449" opacity="1.000000" stroke="none" 
	d="
M107.607727,221.126953 
	C106.280060,219.237503 104.952400,217.348053 102.977821,214.537964 
	C114.065720,214.537964 123.728668,214.537964 134.645935,214.537964 
	C133.060654,217.118073 131.921982,218.971313 130.072800,220.917328 
	C122.094757,218.068253 114.846306,218.678345 107.607727,221.126953 
z"/>
<path fill="#F29F8D" opacity="1.000000" stroke="none" 
	d="
M107.742096,221.459686 
	C114.846306,218.678345 122.094757,218.068253 129.767181,221.084900 
	C124.444046,228.425125 114.636696,228.703430 107.742096,221.459686 
z"/>
</svg>