<?xml version="1.0" encoding="UTF-8"?>
<svg version="1.1" xmlns="http://www.w3.org/2000/svg" width="2629" height="2201">
<path d="M0 0 C5.53274012 2.95159009 10.43780627 6.56701685 15.34643555 10.44628906 C16.82875716 11.59179318 18.31182665 12.7363302 19.7956543 13.87988281 C21.72700518 15.37547789 23.65668831 16.87255106 25.57543945 18.38427734 C26.92384773 19.44224552 28.29051714 20.47683335 29.65893555 21.50878906 C30.3756543 22.064375 31.09237305 22.61996094 31.83081055 23.19238281 C33.93197804 24.34743939 33.93197804 24.34743939 36.27270508 23.31225586 C38.83456359 22.10629857 40.906155 20.79108225 43.16674805 19.09472656 C43.95243164 18.50973389 44.73811523 17.92474121 45.54760742 17.32202148 C46.3680957 16.70302979 47.18858398 16.08403809 48.03393555 15.44628906 C49.73436929 14.17924509 51.43488972 12.91231745 53.13549805 11.64550781 C54.72668322 10.4541541 56.3178323 9.26275219 57.90893555 8.07128906 C60.07044929 6.45982805 62.23743987 4.85684687 64.40893555 3.25878906 C65.22362305 2.65421875 66.03831055 2.04964844 66.87768555 1.42675781 C71.96697085 -1.96936142 78.03303078 -1.57662439 83.90893555 -0.92871094 C89.04738122 0.9164958 92.39591964 3.82045792 95.0300293 8.66088867 C97.07241394 14.26212854 97.1836642 20.41454424 97.65893555 26.32128906 C97.78374637 27.70944478 97.91003625 29.09746836 98.0378418 30.48535156 C98.90893555 40.23011461 98.90893555 40.23011461 98.90893555 44.07128906 C99.6453125 43.8644751 100.38168945 43.65766113 101.14038086 43.44458008 C104.47973525 42.50706502 107.8193324 41.57041761 111.15893555 40.63378906 C112.31780273 40.30830078 113.47666992 39.9828125 114.6706543 39.64746094 C115.78569336 39.33486328 116.90073242 39.02226563 118.04956055 38.70019531 C119.07597656 38.41217041 120.10239258 38.12414551 121.15991211 37.82739258 C128.95734957 35.68275103 135.75246371 34.60141663 143.1159668 38.73144531 C147.24776339 41.81904059 150.06687638 45.96341366 150.90893555 51.07128906 C150.8569214 60.22577862 149.37350683 69.30032773 147.92553711 78.31738281 C147.79501953 79.1359375 147.66450195 79.95449219 147.5300293 80.79785156 C147.35105103 81.88960693 147.35105103 81.88960693 147.16845703 83.00341797 C146.82591893 85.38541794 146.82591893 85.38541794 146.90893555 89.07128906 C148.44958145 89.47107692 149.99159232 89.86560016 151.53393555 90.25878906 C152.61288086 90.53464844 153.69182617 90.81050781 154.8034668 91.09472656 C157.97296915 91.87478752 161.15726133 92.53432718 164.3581543 93.17285156 C165.32221191 93.37241455 166.28626953 93.57197754 167.27954102 93.77758789 C169.20864238 94.17509483 171.14130682 94.55576363 173.07739258 94.91772461 C179.36826678 96.23951002 183.64404243 98.16344723 187.90893555 103.07128906 C190.92361001 107.97869948 191.22644022 113.21874557 190.6237793 118.83300781 C187.98272522 127.10253779 180.25048321 132.81212097 174.19995117 138.61425781 C173.01369141 139.77248047 173.01369141 139.77248047 171.8034668 140.95410156 C171.08006104 141.64906738 170.35665527 142.3440332 169.61132812 143.06005859 C167.8600276 145.12906959 167.29904237 146.42182904 166.90893555 149.07128906 C168.06393555 149.40128906 169.21893555 149.73128906 170.40893555 150.07128906 C175.17785515 151.66599148 179.65017557 153.73926135 184.15893555 155.94628906 C184.84407227 156.27371094 185.52920898 156.60113281 186.23510742 156.93847656 C191.48421133 159.56046798 195.70745426 162.43947292 198.22143555 167.94628906 C199.66434886 174.50498595 199.09962888 179.12999802 195.90893555 185.07128906 C189.59912904 192.76136574 179.49406071 199.09002963 170.90893555 204.07128906 C170.24893555 204.07128906 169.58893555 204.07128906 168.90893555 204.07128906 C169.20928711 205.26625 169.50963867 206.46121094 169.8190918 207.69238281 C170.20398409 209.29766529 170.58805479 210.90314492 170.97143555 212.50878906 C171.1705957 213.29189453 171.36975586 214.075 171.57495117 214.88183594 C173.18517338 221.74646744 173.53357103 227.94236146 170.22143555 234.32128906 C163.94849872 241.78099772 157.57125022 243.84307639 148.40893555 246.75878906 C122.233381 254.61273305 122.233381 254.61273305 102.24487305 272.03222656 C99.84365694 275.15621675 97.49124572 277.06628947 94.28393555 279.32128906 C90.86399835 281.83614724 90.86399835 281.83614724 89.06518555 285.55566406 C88.81588399 287.78552799 88.73313233 289.8375541 88.90893555 292.07128906 C89.99754883 292.45994141 89.99754883 292.45994141 91.1081543 292.85644531 C94.02059357 294.11972092 96.19421815 295.59447163 98.72143555 297.50878906 C103.38085061 300.97348232 108.11222046 304.29956735 112.90893555 307.57128906 C117.70050848 310.85473932 122.48790513 314.14202637 127.22143555 317.50878906 C128.06319336 318.105625 128.90495117 318.70246094 129.7722168 319.31738281 C131.90893555 321.07128906 131.90893555 321.07128906 133.19018555 323.07397461 C135.45351612 325.70413192 137.18688589 326.00640739 140.5456543 326.78222656 C141.67285889 327.05421875 142.80006348 327.32621094 143.96142578 327.60644531 C145.160979 327.88359375 146.36053223 328.16074219 147.59643555 328.44628906 C183.5608271 337.28505574 183.5608271 337.28505574 191.34008789 346.82666016 C194.53546177 350.46622154 197.28891185 352.1970765 202.10717773 352.68041992 C207.24890086 352.96050345 212.38728662 352.89887204 217.53393555 352.82128906 C220.20052644 352.80247628 222.86640229 352.79382165 225.53305054 352.80157471 C227.1848239 352.80423409 228.83672926 352.79074476 230.4881897 352.75848389 C236.85652831 352.73485432 240.83586162 354.29192437 245.7487793 358.50878906 C249.25216671 363.05827813 248.59383412 368.59312592 248.47143555 374.07128906 C248.48239258 375.13863281 248.49334961 376.20597656 248.50463867 377.30566406 C248.44737494 383.444336 248.2468339 387.54737448 243.90893555 392.07128906 C242.26265254 392.78681297 240.59723958 393.4614926 238.90893555 394.07128906 C238.11548422 407.1220177 243.15176889 414.55734685 250.40893555 424.82128906 C251.41032095 426.28038577 252.40904111 427.74131537 253.4050293 429.20410156 C255.21489539 431.85750789 257.04046004 434.49848327 258.88354492 437.12890625 C261.90019838 441.51134447 262.09315331 443.72897383 261.90893555 449.07128906 C261.67303711 449.66941406 261.43713867 450.26753906 261.1940918 450.88378906 C260.74157927 454.35511801 262.47854229 456.82479444 264.22143555 459.69628906 C264.58027832 460.29022461 264.93912109 460.88416016 265.30883789 461.49609375 C267.10328037 464.20193824 268.39099494 465.87299634 271.4597168 467.04785156 C273.16219656 467.2286916 274.86681838 467.39048241 276.57299805 467.53222656 C279.66930767 468.24675955 280.56118661 469.39549418 282.40893555 471.94628906 C286.32530693 478.89756933 287.89208625 486.50664152 285.97143555 494.32128906 C283.31240929 501.5752993 278.55150441 506.82645431 271.58614826 510.21027958 C265.63723759 512.12348896 259.19699605 511.61335608 253.00500488 511.57249451 C251.37450091 511.5763897 249.74400033 511.58203189 248.11350775 511.58926541 C243.64328445 511.60400676 239.17341389 511.59384668 234.70320201 511.57952869 C229.87831445 511.56841529 225.05347621 511.58036273 220.22859192 511.58937073 C210.7807092 511.60330267 201.33296015 511.59574732 191.88508379 511.58069514 C180.88248877 511.56383339 169.87992704 511.56704553 158.87732309 511.57078923 C139.24574372 511.57666773 119.61422849 511.56249661 99.98266602 511.5378418 C80.93348791 511.51392107 61.8843955 511.50683756 42.83520508 511.51733398 C22.09155605 511.5287436 1.34794666 511.5306727 -19.39570189 511.51623589 C-21.60768858 511.51471005 -23.81967528 511.51318969 -26.03166199 511.51167488 C-27.11999994 511.51091707 -28.2083379 511.51015925 -29.3296558 511.50937847 C-36.99889538 511.50463599 -44.66811726 511.50648684 -52.33735657 511.51074028 C-61.68367975 511.51566725 -71.02992191 511.50968117 -80.37622654 511.48984598 C-85.1447896 511.47997521 -89.9132293 511.47486659 -94.68179893 511.48273849 C-99.04775668 511.48979831 -103.41346556 511.4829836 -107.77939051 511.46513487 C-109.3580134 511.46109233 -110.93665899 511.462087 -112.51527339 511.46865373 C-124.17524939 511.51300235 -132.2507738 510.65325522 -141.0402832 502.37988281 C-148.41622625 494.07667835 -149.2433035 484.75765815 -149.23632812 474.07324219 C-149.23968674 473.31748901 -149.24304535 472.56173584 -149.24650574 471.78308105 C-149.25593447 469.30621656 -149.25795524 466.82942034 -149.2590332 464.35253906 C-149.26225307 462.608683 -149.26561767 460.8648272 -149.26911926 459.12097168 C-149.27509162 455.46963883 -149.27696128 451.81832957 -149.27636719 448.16699219 C-149.27626606 443.53226702 -149.28987521 438.89769676 -149.3071394 434.26300812 C-149.31836934 430.65945774 -149.320283 427.05594339 -149.31975746 423.45237732 C-149.32092276 421.74628672 -149.32526092 420.04019473 -149.33308983 418.3341217 C-149.43770178 393.16804327 -146.01245205 370.73226646 -127.8918457 351.67675781 C-111.65679909 336.57386229 -89.20691196 329.40976957 -67.61450195 326.06738281 C-64.61679911 324.88407906 -63.36495662 323.17388193 -61.4362793 320.65649414 C-59.11698949 317.9234363 -56.19846412 316.14128267 -53.21606445 314.19628906 C-51.80891923 313.25622145 -50.40273113 312.31472018 -48.99731445 311.37207031 C-47.84102539 310.59984131 -47.84102539 310.59984131 -46.66137695 309.81201172 C-43.75024797 307.84047395 -40.87263616 305.82514894 -37.99731445 303.80175781 C-36.43859619 302.70613525 -36.43859619 302.70613525 -34.84838867 301.58837891 C-32.77516754 300.12920612 -30.70384662 298.66732938 -28.63452148 297.20263672 C-27.20922119 296.20369385 -27.20922119 296.20369385 -25.75512695 295.18457031 C-24.9038623 294.58427002 -24.05259766 293.98396973 -23.17553711 293.36547852 C-21.09106445 292.07128906 -21.09106445 292.07128906 -19.09106445 292.07128906 C-18.83685451 288.84132737 -19.03804113 286.14861751 -20.09106445 283.07128906 C-22.34551311 280.759932 -24.75687175 278.9972867 -27.38012695 277.11816406 C-32.11256892 273.5449658 -36.11231865 268.98217427 -39.44580078 264.07836914 C-41.23617763 261.89426347 -42.56295886 261.05718241 -45.10668945 259.87988281 C-45.93096436 259.49815918 -46.75523926 259.11643555 -47.60449219 258.72314453 C-48.50756104 258.32240723 -49.41062988 257.92166992 -50.34106445 257.50878906 C-51.28602783 257.07969238 -52.23099121 256.6505957 -53.20458984 256.20849609 C-59.11408294 253.5993298 -65.08179628 251.32234672 -71.1965332 249.25488281 C-72.2311116 248.90232674 -72.2311116 248.90232674 -73.28659058 248.54264832 C-76.70252055 247.38353584 -80.12457924 246.25746373 -83.56665039 245.1784668 C-92.65264685 242.22487315 -98.1217403 238.76249369 -102.59106445 230.19628906 C-103.99724844 221.40763914 -101.20541923 212.55530382 -99.09106445 204.07128906 C-100.08106445 203.74257812 -100.08106445 203.74257812 -101.09106445 203.40722656 C-105.09964132 201.62215717 -108.50679523 199.20924534 -112.09106445 196.69628906 C-112.78973633 196.21417969 -113.4884082 195.73207031 -114.20825195 195.23535156 C-126.35727612 186.79980271 -126.35727612 186.79980271 -128.77856445 180.19628906 C-129.68763725 174.01459406 -129.06250958 169.60432482 -126.09106445 164.07128906 C-119.83942977 156.1146631 -108.30909181 152.49887835 -99.09106445 149.07128906 C-98.43106445 149.07128906 -97.77106445 149.07128906 -97.09106445 149.07128906 C-98.44873358 144.95496623 -100.18983735 142.66013059 -103.3371582 139.70800781 C-104.59302734 138.50047852 -104.59302734 138.50047852 -105.87426758 137.26855469 C-107.63589135 135.6028545 -109.40149065 133.9413482 -111.17114258 132.28417969 C-116.91168861 126.74660454 -120.66497341 122.54074864 -121.3059082 114.31347656 C-120.54023619 107.77830418 -118.81996303 103.8324823 -114.1105957 99.06738281 C-109.83487745 96.24087308 -105.50707247 95.51026115 -100.52856445 94.50878906 C-98.55570997 94.08784206 -96.58305194 93.66597324 -94.6105957 93.24316406 C-93.66265137 93.04400391 -92.71470703 92.84484375 -91.73803711 92.63964844 C-86.82220227 91.58411777 -81.95735982 90.33406191 -77.09106445 89.07128906 C-77.38034311 86.52932978 -77.67188894 83.98768378 -77.96606445 81.44628906 C-78.05484863 80.67881348 -78.14363281 79.91133789 -78.23510742 79.12060547 C-78.93964666 73.13140287 -79.78624876 67.17727188 -80.72387695 61.21972656 C-81.49158117 54.63707122 -81.26597745 49.98319603 -78.09106445 44.07128906 C-74.86992318 40.24074268 -71.80367199 37.79320335 -67.09106445 36.07128906 C-59.40923703 35.50734538 -53.13670163 37.21317909 -45.84106445 39.50878906 C-43.73220669 40.15501065 -41.62284872 40.79960267 -39.51293945 41.44238281 C-38.5909375 41.73040771 -37.66893555 42.01843262 -36.71899414 42.31518555 C-34.18956903 43.04294749 -31.67836756 43.59457291 -29.09106445 44.07128906 C-29.015896 42.9605603 -29.015896 42.9605603 -28.93920898 41.82739258 C-28.7052029 38.42899809 -28.46070946 35.03143358 -28.21606445 31.63378906 C-28.13743164 30.46912109 -28.05879883 29.30445313 -27.9777832 28.10449219 C-26.6144987 9.49041535 -26.6144987 9.49041535 -21.09106445 3.07128906 C-15.11191798 -1.66220189 -7.19145139 -3.1939616 0 0 Z " fill="#020202" transform="translate(1220.091064453125,853.9287109375)"/>
<path d="M0 0 C0.17069867 5.03561089 0.07470484 8.36242448 -2 13 C-3.06166788 17.94794821 -3.14574447 22.72560388 -3.1328125 27.7578125 C-3.13376923 28.58328583 -3.13472595 29.40875916 -3.13571167 30.25924683 C-3.13638928 31.9955859 -3.13456436 33.73192757 -3.13037109 35.46826172 C-3.12500317 38.12343013 -3.13033733 40.77843046 -3.13671875 43.43359375 C-3.13605816 45.12500037 -3.1347774 46.81640689 -3.1328125 48.5078125 C-3.13483673 49.29954865 -3.13686096 50.09128479 -3.13894653 50.90701294 C-3.12391145 54.44198626 -2.95079082 57.59906033 -2 61 C-0.7625 61.2475 0.475 61.495 1.75 61.75 C2.44609375 61.88921875 3.1421875 62.0284375 3.859375 62.171875 C6.13837708 62.17459566 6.13837708 62.17459566 8.09570312 60.4921875 C10.68969544 57.0973832 10.60259907 54.06144977 10.609375 49.953125 C10.62591125 49.18192322 10.64244751 48.41072144 10.65948486 47.6161499 C10.70794593 45.16068546 10.72933037 42.70584016 10.75 40.25 C10.77816146 38.58200013 10.80808914 36.91402908 10.83984375 35.24609375 C10.91370372 31.1641135 10.96328936 27.08247655 11 23 C14.86616622 23.71730757 18.13002847 24.82760284 21.75 26.375 C46.41296942 35.93536455 70.09016077 32.7598585 94 23 C94.99 22.67 95.98 22.34 97 22 C97 75.79 97 129.58 97 185 C68.62 185 40.24 185 11 185 C10.97421875 177.96042969 10.9484375 170.92085937 10.921875 163.66796875 C10.89671656 159.21545802 10.87039141 154.7630159 10.83984375 150.31054688 C10.79143997 143.23917351 10.74742155 136.16795886 10.72900391 129.09643555 C10.71388988 123.39691368 10.67953803 117.69780622 10.63169098 111.9984684 C10.61682284 109.82114572 10.60895589 107.64376389 10.60811615 105.46639061 C10.60576108 102.42269781 10.57879926 99.38016399 10.54589844 96.33666992 C10.5509288 95.43108337 10.55595917 94.52549683 10.56114197 93.59246826 C10.58398906 88.83013322 10.58398906 88.83013322 8.19244385 84.90864563 C4.84785735 83.52250116 2.44185209 84.10766798 -1 85 C-3.0225534 88.0338301 -3.25577087 88.68758864 -3.31884766 92.10424805 C-3.33871735 92.92487228 -3.35858704 93.74549652 -3.37905884 94.59098816 C-3.39061005 95.47232925 -3.40216125 96.35367035 -3.4140625 97.26171875 C-3.43342865 98.16751175 -3.4527948 99.07330475 -3.4727478 100.00654602 C-3.53253542 102.90010151 -3.57892568 105.7936968 -3.625 108.6875 C-3.66318054 110.64910591 -3.70223231 112.61069506 -3.7421875 114.57226562 C-3.83823632 119.3813744 -3.92227043 124.19056166 -4 129 C-6.55005465 126.55958098 -7.96666836 124.36634922 -9.49609375 121.16796875 C-15.49513965 108.96343829 -21.67909138 98.87520366 -31 89 C-34.70221011 84.46784389 -35.44654283 80.58812645 -35.4296875 74.83203125 C-34.77120218 70.49201437 -32.71215955 67.22726245 -30.41015625 63.54296875 C-27.13513801 57.63704944 -27.38715691 50.57784921 -28 44 C-29.23220181 39.71941268 -31.0334937 35.83397132 -33.10546875 31.90234375 C-34.44614152 29.05121869 -34.44423778 27.10966445 -34 24 C-30.59110904 20.15165717 -26.70086908 17.17034617 -22.5 14.25 C-21.89704102 13.82605957 -21.29408203 13.40211914 -20.67285156 12.96533203 C-19.41693034 12.08370279 -18.15942634 11.2043242 -16.90039062 10.32714844 C-15.0156371 9.01092026 -13.13994817 7.68258925 -11.265625 6.3515625 C-10.09406554 5.52559392 -8.92220269 4.70005546 -7.75 3.875 C-6.16445312 2.75738281 -6.16445312 2.75738281 -4.546875 1.6171875 C-2 0 -2 0 0 0 Z " fill="#CAF29D" transform="translate(1201,1165)"/>
<path d="M0 0 C3.81992245 0.43128157 6.15488329 1.53088191 9.1875 3.84375 C9.96295166 4.42680908 10.73840332 5.00986816 11.53735352 5.6105957 C12.35002686 6.23409912 13.1627002 6.85760254 14 7.5 C15.69553469 8.7761756 17.39215429 10.05091103 19.08984375 11.32421875 C19.92112793 11.94989746 20.75241211 12.57557617 21.60888672 13.22021484 C24.8793209 15.6545078 28.20442613 18.00114904 31.5625 20.3125 C32.57441406 21.00988281 33.58632812 21.70726562 34.62890625 22.42578125 C39.87215114 25.90688123 44.82939077 25.83706944 51 25 C55.12176487 23.31699894 58.48344462 20.68067612 62 18 C63.66435022 16.76555828 65.32981605 15.53261997 66.99609375 14.30078125 C71.31254692 11.09572919 75.60551144 7.8612807 79.88452148 4.60644531 C80.58262939 4.07631836 81.2807373 3.54619141 82 3 C82.97078491 2.12359863 82.97078491 2.12359863 83.96118164 1.22949219 C86 0 86 0 88.75 0.3125 C89.4925 0.539375 90.235 0.76625 91 1 C91.06993164 1.8971875 91.13986328 2.794375 91.21191406 3.71875 C91.48207035 7.08223925 91.76712761 10.4437986 92.06201172 13.80517578 C92.18606828 15.25357638 92.30435605 16.70248416 92.41650391 18.15185547 C93.29480646 31.55210631 93.29480646 31.55210631 100.625 42.4375 C109.12689492 46.37356246 116.84015923 44.7509625 125.5 42.125 C126.48742188 41.84269531 127.47484375 41.56039062 128.4921875 41.26953125 C133.35567902 39.92322497 133.35567902 39.92322497 138 38 C141.0625 37.875 141.0625 37.875 144 38 C144.33 38.33 144.66 38.66 145 39 C144.86368754 45.38571454 144.05750975 51.7525092 143.2109375 58.07836914 C140.74885789 72.08203573 140.74885789 72.08203573 145 85 C149.6349646 89.27842886 153.74387062 91.11199603 159.90234375 92.21875 C161.03994141 92.42886719 162.17753906 92.63898438 163.34960938 92.85546875 C164.53361328 93.06816406 165.71761719 93.28085937 166.9375 93.5 C169.28080901 93.92233314 171.6232976 94.34924997 173.96484375 94.78125 C175.0024585 94.96751953 176.04007324 95.15378906 177.10913086 95.34570312 C179.90233319 95.97789485 182.37837439 96.85908783 185 98 C184.51446799 102.48353851 183.09027238 104.3629397 179.8515625 107.43359375 C178.59085938 108.6546582 178.59085938 108.6546582 177.3046875 109.90039062 C176.42039062 110.73763672 175.53609375 111.57488281 174.625 112.4375 C172.88103573 114.09554838 171.14380594 115.76071496 169.4140625 117.43359375 C168.6401416 118.16634521 167.8662207 118.89909668 167.06884766 119.65405273 C162.97490871 124.29633021 161.40474466 128.62673317 161.66015625 134.6953125 C162.34304189 139.32637605 163.91925322 143.34860396 167.66235352 146.31933594 C173.49168102 149.88614589 179.54624361 152.48416616 185.90429688 154.9609375 C186.67708984 155.28320312 187.44988281 155.60546875 188.24609375 155.9375 C188.94404053 156.21464844 189.6419873 156.49179688 190.36108398 156.77734375 C192 158 192 158 192.73461914 160.62890625 C192.86598267 161.80259766 192.86598267 161.80259766 193 163 C192.410979 163.38744385 191.82195801 163.7748877 191.21508789 164.17407227 C188.49502326 165.96640009 185.77876018 167.76441228 183.0625 169.5625 C182.13630859 170.17158203 181.21011719 170.78066406 180.25585938 171.40820312 C177.48504335 173.24569165 174.74213557 175.12005941 172 177 C171.10909668 177.5760498 170.21819336 178.15209961 169.30029297 178.74560547 C166.94506756 180.37067869 164.91840842 181.8767074 163 184 C162.39871162 187.41409501 162.30468309 188.80519779 163 192 C163.14066895 192.67724121 163.28133789 193.35448242 163.42626953 194.05224609 C164.07818701 196.81845497 164.87289625 199.53523855 165.66601562 202.26367188 C166.75369669 206.22893722 167.41903112 209.09420675 166 213 C163.734375 214.33032227 163.734375 214.33032227 160.75 215.31640625 C159.66589844 215.68830078 158.58179688 216.06019531 157.46484375 216.44335938 C156.32144531 216.81267578 155.17804688 217.18199219 154 217.5625 C151.76977246 218.31064701 149.54058476 219.06190169 147.3125 219.81640625 C146.24 220.17621582 145.1675 220.53602539 144.0625 220.90673828 C140.51003314 222.17491004 137.1101558 223.65876038 133.70703125 225.28100586 C132 226 132 226 130 226 C130.99 220.39 131.98 214.78 133 209 C135.289375 208.4121875 135.289375 208.4121875 137.625 207.8125 C143.6444242 205.99901011 147.12695189 203.6481025 150.8125 198.4375 C153.79076926 192.32421047 153.22062972 185.91705258 153.25 179.25 C153.270625 178.095 153.29125 176.94 153.3125 175.75 C153.34627748 168.3527314 153.1228211 162.11791695 148.4921875 156.01171875 C145.2284344 153.33922527 142.30259794 151.59741825 138.2578125 150.33203125 C137.05729248 149.95075073 137.05729248 149.95075073 135.83251953 149.56176758 C135.22778809 149.37638428 134.62305664 149.19100098 134 149 C133.99589111 148.28158936 133.99178223 147.56317871 133.98754883 146.82299805 C133.70034852 118.01336034 128.64054214 94.74475929 108.44140625 73.28125 C91.44204992 56.91337051 67.26228896 47.40589648 43.67236328 47.578125 C19.02820973 48.41858076 -4.52599557 58.77218428 -21.64794922 76.50244141 C-40.57380161 97.46509553 -43.84484889 121.87289377 -44 149 C-44.90709717 149.27589966 -44.90709717 149.27589966 -45.83251953 149.55737305 C-51.77834232 151.36847975 -51.77834232 151.36847975 -56.875 154.8125 C-57.40867187 155.27269531 -57.94234375 155.73289062 -58.4921875 156.20703125 C-62.2012066 160.61749697 -63.38091123 164.78257561 -63.3984375 170.46484375 C-63.40230469 171.67720703 -63.40617187 172.88957031 -63.41015625 174.13867188 C-63.39855469 175.39228516 -63.38695312 176.64589844 -63.375 177.9375 C-63.38660156 179.18724609 -63.39820313 180.43699219 -63.41015625 181.72460938 C-63.38103022 190.86532923 -62.48064013 197.13814575 -56 204 C-51.66228862 207.25328354 -48.72150774 207.56962306 -43 209 C-42.01 214.61 -41.02 220.22 -40 226 C-47.49100711 223.51365719 -54.96906354 220.99084721 -62.4375 218.4375 C-63.62021484 218.03853516 -64.80292969 217.63957031 -66.02148438 217.22851562 C-67.71047852 216.6494043 -67.71047852 216.6494043 -69.43359375 216.05859375 C-70.45509521 215.71111084 -71.47659668 215.36362793 -72.52905273 215.00561523 C-75 214 -75 214 -77 212 C-76.72954884 207.13187911 -75.68826448 202.70525686 -74.4375 198 C-73.94578803 196.00304731 -73.4656086 194.00319977 -73 192 C-72.81953125 191.25234375 -72.6390625 190.5046875 -72.453125 189.734375 C-72.0319965 187.44226378 -72.0319965 187.44226378 -73 184 C-75.82444475 180.67247349 -79.38452873 178.38438042 -83 176 C-84.2060791 175.19828369 -84.2060791 175.19828369 -85.43652344 174.38037109 C-91.25399372 170.52854878 -97.11229577 166.74344863 -103 163 C-102.68920898 160.61523438 -102.68920898 160.61523438 -102 158 C-99.64656855 156.56668433 -97.58378034 155.52951012 -95.0625 154.5 C-93.69245852 153.89770336 -92.32266736 153.29483698 -90.953125 152.69140625 C-89.63570428 152.12693244 -88.31801509 151.56308459 -87 151 C-78.40994264 147.29250615 -78.40994264 147.29250615 -73 140 C-72.11048724 137.33146173 -71.77933063 135.51458531 -71.6875 132.75 C-71.65011719 132.02296875 -71.61273437 131.2959375 -71.57421875 130.546875 C-73.14899897 121.12708873 -81.93673454 114.97492019 -88.52929688 108.8515625 C-89.37169922 108.04203125 -90.21410156 107.2325 -91.08203125 106.3984375 C-91.85780518 105.67317871 -92.6335791 104.94791992 -93.43286133 104.20068359 C-95 102 -95 102 -94.74487305 99.22509766 C-94.37616089 98.12367432 -94.37616089 98.12367432 -94 97 C-92.98800537 96.79636841 -92.98800537 96.79636841 -91.95556641 96.58862305 C-88.84438191 95.95973263 -85.73470603 95.32365909 -82.625 94.6875 C-81.56410156 94.47416016 -80.50320313 94.26082031 -79.41015625 94.04101562 C-65.45025265 91.60084271 -65.45025265 91.60084271 -54 84 C-49.25728208 74.30269017 -52.39286577 61.91359624 -53.93237305 51.69165039 C-54.6221523 47.08015885 -55.18753343 42.68052173 -55 38 C-46.19827215 38.60701571 -38.05611797 41.06611359 -29.67578125 43.7421875 C-23.04508272 45.70584264 -16.86814703 45.32784585 -10.625 42.4375 C-2.95023974 35.3109369 -3.0360345 25.82410288 -2.3125 16.0625 C-2.14020269 13.91491133 -1.96329123 11.76780652 -1.7820282 9.62095642 C-1.62115802 7.69209987 -1.47297098 5.762198 -1.32543945 3.83227539 C-1 1 -1 1 0 0 Z " fill="#EFF6FC" transform="translate(1210,868)"/>
<path d="M0 0 C8.14769667 14.61181317 8.14769667 14.61181317 7.640625 20.77734375 C6.52205567 24.65823369 4.52474426 28.0025412 2.41015625 31.421875 C-1.12512554 37.88527107 -0.75640286 45.85199296 0 53 C2.11510085 60.01277289 5.76730087 64.92240145 10.9375 70 C20.09649982 79.14464402 25.25421241 91.77316788 31.07452393 103.19152832 C33.11590997 107.18059833 35.19791802 111.14862455 37.27368164 115.11987305 C38.32272942 117.12952167 39.36764748 119.14133268 40.40795898 121.15551758 C40.86887939 122.04650146 41.3297998 122.93748535 41.8046875 123.85546875 C42.20671387 124.63559326 42.60874023 125.41571777 43.02294922 126.21948242 C43.87403721 127.96728241 43.87403721 127.96728241 45 129 C45.08726223 130.78071246 45.10699041 132.5648314 45.09765625 134.34765625 C45.09282227 135.96704102 45.09282227 135.96704102 45.08789062 137.61914062 C45.07532227 139.32360352 45.07532227 139.32360352 45.0625 141.0625 C45.05798828 142.20267578 45.05347656 143.34285156 45.04882812 144.51757812 C45.03699747 147.34510351 45.0205141 150.1725264 45 153 C32.06530523 153.0926932 19.13068952 153.16376184 6.19573021 153.20724869 C0.18944947 153.22812055 -5.81660398 153.25643146 -11.82275391 153.30175781 C-17.61937061 153.34522898 -23.41576872 153.36914013 -29.21253586 153.37950897 C-31.4237347 153.38689798 -33.63492162 153.40132696 -35.84602737 153.42292023 C-38.944001 153.4519704 -42.04107217 153.45595523 -45.13916016 153.45410156 C-46.05266235 153.46848267 -46.96616455 153.48286377 -47.90734863 153.49768066 C-53.44568127 153.46183895 -56.60502736 152.69716781 -61 149 C-65.21294715 144.20595669 -65.1568882 139.64385209 -65.17700195 133.51220703 C-65.18357315 132.64507584 -65.19014435 131.77794464 -65.19691467 130.88453674 C-65.21665311 128.00896108 -65.22831646 125.13343787 -65.23828125 122.2578125 C-65.24235678 121.2728265 -65.2464323 120.2878405 -65.25063133 119.27300644 C-65.27150237 114.05147257 -65.2857951 108.829965 -65.29516602 103.60839844 C-65.30618427 98.24109363 -65.34052794 92.8742087 -65.38033772 87.50705147 C-65.40662847 83.35974414 -65.41486925 79.21253452 -65.41844749 75.06515121 C-65.42328764 73.08861354 -65.43482722 71.11207947 -65.45348549 69.13562393 C-65.61957086 50.36329107 -62.61153255 34.25222048 -49.171875 20.0546875 C-37.155658 8.68682754 -16.77521749 -0.63735629 0 0 Z " fill="#F0F0F3" transform="translate(1152,1197)"/>
<path d="M0 0 C0.1959375 0.61746094 0.391875 1.23492188 0.59375 1.87109375 C3.56190321 10.27659658 8.15607941 17.30203373 16.25 21.5 C20.1835287 23.25545909 23.87442921 24.11752937 28.18261719 24.17700195 C28.99736511 24.18983719 29.81211304 24.20267242 30.65155029 24.21589661 C31.52450745 24.22328354 32.3974646 24.23067047 33.296875 24.23828125 C34.65827606 24.25038887 34.65827606 24.25038887 36.04718018 24.26274109 C37.96698104 24.27655639 39.88680621 24.28728994 41.80664062 24.29516602 C43.7617924 24.30668026 45.71691288 24.32712326 47.671875 24.35668945 C50.50542439 24.39952774 53.33804129 24.41555776 56.171875 24.42578125 C57.46916534 24.45204338 57.46916534 24.45204338 58.79266357 24.47883606 C65.52584748 24.45502724 70.75391948 22.77668802 75.91796875 18.359375 C76.33691406 17.82828125 76.75585938 17.2971875 77.1875 16.75 C77.90486328 15.85861328 77.90486328 15.85861328 78.63671875 14.94921875 C80.51329635 12.26608917 82.06544134 9.42997127 83.53125 6.50390625 C85 5 85 5 87.90625 4.421875 C91 5 91 5 93.125 7.44921875 C93.74375 8.51785156 94.3625 9.58648438 95 10.6875 C98.80846074 16.85807856 102.21509528 21.07852959 109 24 C111.09116137 24.324441 111.09116137 24.324441 113.30273438 24.32226562 C114.14461304 24.34148071 114.9864917 24.3606958 115.85388184 24.38049316 C117.21011658 24.3932428 117.21011658 24.3932428 118.59375 24.40625 C120.00750916 24.42335022 120.00750916 24.42335022 121.4498291 24.4407959 C123.44697599 24.45967969 125.44418497 24.47275747 127.44140625 24.48046875 C130.46208499 24.49975789 133.47996719 24.56175324 136.5 24.625 C148.48763633 24.75689878 157.81723425 24.35566904 167.20288086 16.05078125 C171.7704908 11.47386358 173.99843367 6.06685943 176 0 C178.86724686 0.57344937 179.8614515 0.8614515 182 3 C182.481637 6.77133911 182.37039005 10.57640331 182.375 14.375 C182.39949219 15.42945313 182.42398437 16.48390625 182.44921875 17.5703125 C182.45308594 18.58609375 182.45695312 19.601875 182.4609375 20.6484375 C182.46915527 21.57833496 182.47737305 22.50823242 182.48583984 23.46630859 C181.85633457 26.74922602 180.56244353 27.92552788 178 30 C175.81640625 30.65234375 175.81640625 30.65234375 173.5625 30.9375 C169.02386629 31.78849382 166.8712444 33.25868153 164 37 C162.38475397 40.48799506 161.66710371 43.6375629 161.1875 47.4375 C158.32111826 65.38545951 149.35034775 81.06685311 134.875 92.125 C120.5831336 102.03455377 105.66242824 107.78514138 88.1875 107.5625 C86.34937744 107.54606445 86.34937744 107.54606445 84.47412109 107.52929688 C63.52040898 107.03006879 45.30397921 97.80396423 30.7890625 82.69921875 C20.31620703 70.44076148 15.97381046 56.31698189 13 40.8125 C11.76630419 36.10903471 10.2282487 34.43244559 6.25 31.875 C3.48961084 30.80151533 0.70877951 30.22453639 -2.1953125 29.66015625 C-4 29 -4 29 -6 26 C-6.43627662 22.18093141 -6.32419698 18.34128768 -6.3125 14.5 C-6.32861328 13.44167969 -6.34472656 12.38335938 -6.36132812 11.29296875 C-6.36197266 10.27847656 -6.36261719 9.26398438 -6.36328125 8.21875 C-6.36626221 7.28998047 -6.36924316 6.36121094 -6.37231445 5.40429688 C-6 3 -6 3 -4.66479492 1.17382812 C-3 0 -3 0 0 0 Z " fill="#FDDBCC" transform="translate(1167,1032)"/>
<path d="M0 0 C7.47664315 0.85797544 14.50279525 2.97512588 21.625 5.3125 C22.50696045 5.59617432 23.3889209 5.87984863 24.29760742 6.17211914 C30.26873938 8.17735418 35.60342816 10.75630713 41 14 C39.99320986 16.01358027 38.99152695 18.0151752 37.89379883 19.98120117 C36.28871823 23.60655256 36.67253234 27.4059405 36.6875 31.3125 C36.67138672 32.14201172 36.65527344 32.97152344 36.63867188 33.82617188 C36.63435136 39.30026253 37.22614075 43.23186285 40 48 C40.85851563 48.50402344 41.71703125 49.00804687 42.6015625 49.52734375 C45 51 45 51 46.0859375 53.87890625 C47.15515635 67.5042222 39.61796002 76.57650012 32.03546143 87.25071716 C26.91977149 94.46507007 22.11221408 101.87989334 17.27932739 109.2852478 C15.77693937 111.58378485 14.26849824 113.87821318 12.75756836 116.17114258 C12.27978439 116.89661789 11.80200043 117.6220932 11.30973816 118.36955261 C10.41991411 119.7204553 9.52966326 121.07107701 8.63887024 122.42134094 C6.48738777 125.69340221 4.35718126 128.97882055 2.25488281 132.28271484 C1.84683411 132.92252289 1.4387854 133.56233093 1.01837158 134.2215271 C-0.85068192 137.48562152 -1.13618545 140.19498608 -1.125 143.875 C-1.12757812 144.71804688 -1.13015625 145.56109375 -1.1328125 146.4296875 C-1.04027135 149.42807746 -1.04027135 149.42807746 0 154 C-14.52 154 -29.04 154 -44 154 C-45.67780256 134.22589838 -41.92063428 123.1365015 -31.89404297 106.24804688 C-30.09325985 103.15992898 -28.41932554 100.03821234 -26.78515625 96.859375 C-21.82418945 87.24096047 -16.71415847 78.70604975 -9.41796875 70.6953125 C-1.76328559 62.16262853 1.62050806 54.41016183 1.53515625 42.86328125 C0.92046423 38.42583305 -0.46959451 35.1925252 -2.5 31.25 C-5.51228546 25.38999398 -7.61921975 20.6200753 -6 14 C-4.88634608 11.2886659 -3.64581041 8.77073387 -2.19140625 6.2265625 C-1.06765696 4.12644088 -0.46169455 2.32439325 0 0 Z " fill="#EFEFF2" transform="translate(1357,1196)"/>
<path d="M0 0 C12.69633295 9.7767526 22.64897975 24.15881336 26 40 C26.07403678 42.33215844 26.09515886 44.66860788 26 47 C25.35045853 46.78794104 24.70091705 46.57588207 24.0316925 46.35739708 C16.73898768 44.15052114 10.13295727 43.57001605 2.54296875 43.61181641 C1.34958893 43.60655945 0.15620911 43.60130249 -1.07333374 43.59588623 C-4.31311389 43.58502663 -7.55251976 43.58745653 -10.79229355 43.59702349 C-14.20374 43.60468835 -17.61516376 43.59755573 -21.02661133 43.59286499 C-26.75248618 43.5874271 -32.47824446 43.59454704 -38.20410156 43.60888672 C-44.79741542 43.62520952 -51.39045085 43.6199196 -57.98375797 43.6034075 C-63.6733006 43.58973619 -69.36276004 43.58790038 -75.0523138 43.59572351 C-78.43788648 43.6003692 -81.82332884 43.60111151 -85.20889282 43.59111404 C-88.9871065 43.5834505 -92.76479401 43.59517317 -96.54296875 43.61181641 C-98.19696182 43.60270737 -98.19696182 43.60270737 -99.8843689 43.59341431 C-107.01053955 43.65123593 -113.22623229 44.78853511 -120 47 C-120.58799481 32.94157862 -112.71803046 19.26401767 -103.8125 8.8125 C-76.13904374 -20.30762935 -32.34642877 -24.02452979 0 0 Z " fill="#FDDBCC" transform="translate(1302,946)"/>
<path d="M0 0 C0.99 0.33 1.98 0.66 3 1 C4.78879802 1.1190686 6.5822856 1.17522113 8.375 1.1875 C9.31085938 1.20167969 10.24671875 1.21585938 11.2109375 1.23046875 C14.17136501 0.98583959 16.26815909 0.1124738 19 -1 C22.29416842 -0.72083319 25.03124226 -0.48437887 28 1 C29.95637514 1.0969632 31.91622931 1.12978917 33.875 1.125 C34.92429687 1.12757812 35.97359375 1.13015625 37.0546875 1.1328125 C39.55676685 1.01998664 41.61756923 0.72508762 44 0 C44.7734375 1.4540625 44.7734375 1.4540625 45.5625 2.9375 C47.74722138 6.32276962 47.74722138 6.32276962 51.5625 6.875 C53.70732023 6.95299346 55.85376217 7 58 7 C59.25854492 8.37695312 59.25854492 8.37695312 60.48046875 10.28125 C60.92197266 10.95800781 61.36347656 11.63476562 61.81835938 12.33203125 C62.27017578 13.04746094 62.72199219 13.76289062 63.1875 14.5 C63.65091797 15.21542969 64.11433594 15.93085937 64.59179688 16.66796875 C65.7372456 18.43928122 66.86984411 20.21889127 68 22 C67.50242187 22.7528125 67.00484375 23.505625 66.4921875 24.28125 C64.46617632 27.97262115 64.99302381 29.97209525 66 34 C66.515625 34.845625 67.03125 35.69125 67.5625 36.5625 C69.40075846 39.67954696 69.52028774 41.43231261 69 45 C67.20006226 47.69990662 65.916227 49.5418865 63 51 C61.5543369 51.10030821 60.10419306 51.13938592 58.65507507 51.14717102 C57.74240875 51.15432632 56.82974243 51.16148163 55.88941956 51.16885376 C54.88523483 51.17154266 53.88105011 51.17423157 52.84643555 51.17700195 C51.79103577 51.18357315 50.73563599 51.19014435 49.64825439 51.19691467 C46.14440852 51.21667765 42.64060555 51.22831646 39.13671875 51.23828125 C37.94224436 51.24235678 36.74776997 51.2464323 35.51709938 51.25063133 C29.19605303 51.27150405 22.87502846 51.28580105 16.55395508 51.29516602 C10.01666284 51.30623791 3.47971029 51.34064379 -3.05746174 51.38033772 C-8.07686508 51.40645 -13.09618679 51.41485304 -18.11565208 51.41844749 C-20.52583297 51.42332673 -22.93600988 51.43497848 -25.34612465 51.45348549 C-28.71710968 51.47776344 -32.08720676 51.47693237 -35.45825195 51.4699707 C-36.95542 51.48918579 -36.95542 51.48918579 -38.48283386 51.50878906 C-42.85136998 51.47585728 -45.30948781 51.42469002 -49.09635925 49.09562683 C-51.26015453 46.71360836 -51.91010397 45.59331381 -52.390625 42.421875 C-51.82866503 37.4991057 -49.46793028 34.31334122 -46.75 30.25 C-46.21656982 29.42959229 -45.68313965 28.60918457 -45.13354492 27.76391602 C-43.4377111 25.16545696 -41.72149469 22.58151812 -40 20 C-39.42910645 19.13938965 -38.85821289 18.2787793 -38.27001953 17.39208984 C-35.20672206 12.77475496 -32.12879564 8.16787096 -29.0246582 3.57788086 C-27.93725975 1.96790448 -27.93725975 1.96790448 -27 0 C-26.46375 0.16113281 -25.9275 0.32226562 -25.375 0.48828125 C-22.53871902 1.09938784 -19.90085237 1.16936967 -17 1.1875 C-15.96875 1.20167969 -14.9375 1.21585938 -13.875 1.23046875 C-8.34143395 0.78688125 -5.97916781 -1.19583356 0 0 Z " fill="#DC568F" transform="translate(1422,1299)"/>
<path d="M0 0 C1.02046417 -0.00997513 2.04092834 -0.01995026 3.09231567 -0.03022766 C4.20615631 -0.03089233 5.31999695 -0.03155701 6.46759033 -0.03224182 C7.6452597 -0.04056534 8.82292908 -0.04888885 10.0362854 -0.0574646 C13.26378752 -0.07743264 16.49114002 -0.08820581 19.71869564 -0.09329104 C21.73761805 -0.09693822 23.75651579 -0.10318024 25.77542877 -0.11029243 C32.82614732 -0.13478233 39.87679238 -0.14783715 46.92755127 -0.15138245 C53.48737354 -0.15501412 60.04672691 -0.18488364 66.60640597 -0.22678703 C72.2473455 -0.26155088 77.88813014 -0.27693196 83.529176 -0.27762848 C86.89422728 -0.27841945 90.25880107 -0.28707301 93.62374115 -0.31562614 C97.38199997 -0.34252141 101.13897148 -0.33771856 104.89727783 -0.32521057 C106.00302155 -0.34004486 107.10876526 -0.35487915 108.24801636 -0.37016296 C115.0829031 -0.30548276 119.67676381 0.78185047 124.94122314 5.27415466 C130.16788524 11.03688467 130.33996287 15.04144865 130.29278564 22.70774841 C129.70104826 28.71059541 127.17508846 32.23739511 122.81622314 36.21165466 C116.66243761 39.6987998 108.59392808 38.57752606 101.69927979 38.62425232 C99.90390078 38.64083856 98.10858851 38.66816378 96.3135376 38.70628357 C93.72163751 38.76101018 91.13127909 38.78291467 88.53887939 38.79759216 C87.73773209 38.82026154 86.93658478 38.84293091 86.11116028 38.86628723 C82.16585842 38.85131093 80.38415608 38.70607312 77.50640869 35.89988708 C76.98989746 35.03339539 76.47338623 34.16690369 75.94122314 33.27415466 C75.39981689 32.4375531 74.85841064 31.60095154 74.30059814 30.73899841 C73.50395752 29.48796326 73.50395752 29.48796326 72.69122314 28.21165466 C69.39341402 23.52345568 66.57280911 20.68205116 60.94122314 19.27415466 C54.62063793 18.32237063 49.16365348 18.6035251 43.85528564 22.37181091 C40.51526681 25.69138065 38.13921087 29.62188682 35.70294189 33.62962341 C33.94122314 36.27415466 33.94122314 36.27415466 30.94122314 38.27415466 C28.10996797 38.49446419 25.37955748 38.60218028 22.54669189 38.61009216 C21.72171707 38.61674896 20.89674225 38.62340576 20.04676819 38.63026428 C18.30091581 38.64038791 16.55502476 38.64508139 14.80914307 38.64476013 C12.14873717 38.64912185 9.49000611 38.68541056 6.82989502 38.72337341 C5.13133296 38.7292441 3.43276305 38.73321181 1.73419189 38.73509216 C0.94336716 38.7494632 0.15254242 38.76383423 -0.6622467 38.77864075 C-6.73378374 38.72887105 -10.33088899 36.95129112 -14.73846436 32.62571716 C-19.08977152 26.34049571 -19.03035565 19.68694099 -18.05877686 12.27415466 C-14.63989251 4.92988458 -8.14074064 0.04274944 0 0 Z " fill="#D0EAF7" transform="translate(1199.0587768554688,1003.7258453369141)"/>
<path d="M0 0 C2.86724686 0.57344937 3.8614515 0.8614515 6 3 C6.481637 6.77133911 6.37039005 10.57640331 6.375 14.375 C6.39949219 15.42945313 6.42398437 16.48390625 6.44921875 17.5703125 C6.45308594 18.58609375 6.45695312 19.601875 6.4609375 20.6484375 C6.46915527 21.57833496 6.47737305 22.50823242 6.48583984 23.46630859 C5.85633457 26.74922602 4.56244353 27.92552788 2 30 C-0.18359375 30.65234375 -0.18359375 30.65234375 -2.4375 30.9375 C-6.97613371 31.78849382 -9.1287556 33.25868153 -12 37 C-13.61524603 40.48799506 -14.33289629 43.6375629 -14.8125 47.4375 C-17.67888174 65.38545951 -26.64965225 81.06685311 -41.125 92.125 C-57.7604309 103.65951148 -73.13625391 107.75511601 -93 107 C-90.07292425 104.72641093 -87.04658168 102.78904492 -83.875 100.875 C-65.91044586 89.46475722 -54.15685629 72.47689913 -49.48803711 51.72436523 C-48.99052894 48.94712978 -48.79379976 46.29859391 -48.68359375 43.48046875 C-48.62075195 41.9480957 -48.62075195 41.9480957 -48.55664062 40.38476562 C-48.51732422 39.32966797 -48.47800781 38.27457031 -48.4375 37.1875 C-48.37272461 35.57584961 -48.37272461 35.57584961 -48.30664062 33.93164062 C-48.20089098 31.28789949 -48.09997297 28.64396588 -48 26 C-52.95 26 -57.9 26 -63 26 C-63 25.67 -63 25.34 -63 25 C-61.85112305 25.00112793 -60.70224609 25.00225586 -59.51855469 25.00341797 C-55.20166268 24.99970998 -50.88586402 24.95658285 -46.56933594 24.90234375 C-44.71133532 24.88432365 -42.85320227 24.8765895 -40.99511719 24.87988281 C-28.65586322 24.89316511 -18.51006399 24.61974263 -8.7902832 16.05224609 C-4.23385868 11.46537498 -2.00185164 6.06772423 0 0 Z " fill="#FCC8BB" transform="translate(1343,1032)"/>
<path d="M0 0 C7.47664315 0.85797544 14.50279525 2.97512588 21.625 5.3125 C22.50696045 5.59617432 23.3889209 5.87984863 24.29760742 6.17211914 C30.26873938 8.17735418 35.60342816 10.75630713 41 14 C39.99320986 16.01358027 38.99152695 18.0151752 37.89379883 19.98120117 C36.28871823 23.60655256 36.67253234 27.4059405 36.6875 31.3125 C36.67138672 32.14201172 36.65527344 32.97152344 36.63867188 33.82617188 C36.63435136 39.30026253 37.22614075 43.23186285 40 48 C40.85851563 48.50402344 41.71703125 49.00804687 42.6015625 49.52734375 C45 51 45 51 46.0859375 53.87890625 C47.28035741 69.09968967 36.88408054 81.44168229 28 93 C27.02477879 94.02417947 26.0357712 95.03709916 25 96 C24.79246094 95.21238281 24.58492187 94.42476562 24.37109375 93.61328125 C20.30289971 79.22991739 13.99907256 66.04704492 1 58 C0.67 57.34 0.34 56.68 0 56 C0.33 55.01 0.66 54.02 1 53 C2.01985908 44.60934119 1.33398922 38.65262106 -2.5 31.25 C-5.51360511 25.39112671 -7.61899542 20.61915813 -6 14 C-4.88634608 11.2886659 -3.64581041 8.77073387 -2.19140625 6.2265625 C-1.06765696 4.12644088 -0.46169455 2.32439325 0 0 Z " fill="#DDE8ED" transform="translate(1357,1196)"/>
<path d="M0 0 C0.17069867 5.03561089 0.07470484 8.36242448 -2 13 C-3.06166788 17.94794821 -3.14574447 22.72560388 -3.1328125 27.7578125 C-3.13376923 28.58328583 -3.13472595 29.40875916 -3.13571167 30.25924683 C-3.13638928 31.9955859 -3.13456436 33.73192757 -3.13037109 35.46826172 C-3.12500317 38.12343013 -3.13033733 40.77843046 -3.13671875 43.43359375 C-3.13605816 45.12500037 -3.1347774 46.81640689 -3.1328125 48.5078125 C-3.13483673 49.29954865 -3.13686096 50.09128479 -3.13894653 50.90701294 C-3.29153884 56.0989118 -3.29153884 56.0989118 -2 61 C-0.02 61.66 1.96 62.32 4 63 C4 69.6 4 76.2 4 83 C2.02 83.99 0.04 84.98 -2 86 C-3.71688134 89.43376268 -3.24509002 93.38114365 -3.31640625 97.1640625 C-3.33718735 98.07127045 -3.35796844 98.97847839 -3.37937927 99.91317749 C-3.44487135 102.8170398 -3.50375814 105.72099405 -3.5625 108.625 C-3.60568555 110.59115542 -3.64929985 112.55730147 -3.69335938 114.5234375 C-3.80055239 119.34886362 -3.90182081 124.1743824 -4 129 C-6.55005465 126.55958098 -7.96666836 124.36634922 -9.49609375 121.16796875 C-15.49513965 108.96343829 -21.67909138 98.87520366 -31 89 C-34.70221011 84.46784389 -35.44654283 80.58812645 -35.4296875 74.83203125 C-34.77120218 70.49201437 -32.71215955 67.22726245 -30.41015625 63.54296875 C-27.13513801 57.63704944 -27.38715691 50.57784921 -28 44 C-29.23220181 39.71941268 -31.0334937 35.83397132 -33.10546875 31.90234375 C-34.44614152 29.05121869 -34.44423778 27.10966445 -34 24 C-30.59110904 20.15165717 -26.70086908 17.17034617 -22.5 14.25 C-21.89704102 13.82605957 -21.29408203 13.40211914 -20.67285156 12.96533203 C-19.41693034 12.08370279 -18.15942634 11.2043242 -16.90039062 10.32714844 C-15.0156371 9.01092026 -13.13994817 7.68258925 -11.265625 6.3515625 C-10.09406554 5.52559392 -8.92220269 4.70005546 -7.75 3.875 C-6.16445312 2.75738281 -6.16445312 2.75738281 -4.546875 1.6171875 C-2 0 -2 0 0 0 Z " fill="#CEE0E5" transform="translate(1201,1165)"/>
<path d="M0 0 C5.94745329 3.24847313 11.45887852 6.9796743 17 10.875 C17.86367187 11.47441406 18.72734375 12.07382813 19.6171875 12.69140625 C33.35143373 22.3137277 33.35143373 22.3137277 35.25 27.25 C34.94487386 31.82689205 33.43285142 34.79677008 31.2265625 38.765625 C27.90537598 44.81568452 27.88566612 52.28582538 29 59 C29.93960101 61.75111989 31.16623758 64.29518811 32.5 66.875 C37.67544768 76.8931146 37.67544768 76.8931146 36 83 C34.37637777 86.97867824 31.98706522 90.02972795 28.93359375 93.03125 C22.1829826 99.70401226 17.85103506 107.17828679 13.4375 115.5 C13.12418732 116.09028992 12.81087463 116.68057983 12.48806763 117.28875732 C8.86230732 123.97693128 8.86230732 123.97693128 6 131 C5.34 131 4.68 131 4 131 C3.99761165 130.41046319 3.99522329 129.82092638 3.99276257 129.21352482 C3.9335139 114.83981879 3.85790107 100.46626685 3.76428509 86.09274387 C3.71940296 79.1416787 3.67997106 72.1906639 3.65356445 65.23950195 C3.62805479 58.52854147 3.58709936 51.81783606 3.53681374 45.10700798 C3.52015664 42.54946634 3.50863519 39.99188581 3.50238609 37.43429756 C3.49273282 33.84601515 3.46465711 30.25830651 3.43237305 26.67016602 C3.43380814 25.61783783 3.43524323 24.56550964 3.4367218 23.48129272 C3.36508666 17.83411321 2.74319823 13.17545457 0.65935993 7.90637112 C-0.26197922 5.2425539 -0.21428527 2.78570845 0 0 Z " fill="#C9DBE0" transform="translate(1308,1164)"/>
<path d="M0 0 C5.0024404 0.95617002 9.71461444 2.47572392 14.55078125 4.0625 C22.41450002 6.1998641 30.21496802 6.18264827 38.3125 6.1875 C39.90868164 6.20586914 39.90868164 6.20586914 41.53710938 6.22460938 C50.71593672 6.24141016 59.4234346 5.32094145 68 1.875 C70.98662834 0.6855579 72.76248505 0 76 0 C76 8.58 76 17.16 76 26 C60.88027901 33.47491824 47.77160888 36.84288086 31 36 C30.12472656 35.96777344 29.24945312 35.93554688 28.34765625 35.90234375 C18.53378265 35.21022608 8.32428526 31.13069154 0 26 C-1.32411006 23.35177988 -1.01892401 21.51061806 -0.87890625 18.5546875 C-0.83056641 17.47832031 -0.78222656 16.40195313 -0.73242188 15.29296875 C-0.64831055 13.60107422 -0.64831055 13.60107422 -0.5625 11.875 C-0.51029297 10.73933594 -0.45808594 9.60367187 -0.40429688 8.43359375 C-0.27435544 5.62213369 -0.13938086 2.81100535 0 0 Z " fill="#FBDACB" transform="translate(1217,1147)"/>
<path d="M0 0 C4.18282626 1.33220151 6.00945281 2.78634791 8.5 6.375 C9.17289063 7.34308594 9.84578125 8.31117187 10.5390625 9.30859375 C11.36260153 10.53690536 12.18249908 11.7676615 13 13 C13.52819336 13.7955127 14.05638672 14.59102539 14.60058594 15.41064453 C17.5028448 19.799964 20.38466367 24.20251524 23.2421875 28.62109375 C23.7254248 29.3680249 24.20866211 30.11495605 24.70654297 30.88452148 C26.93231892 34.52482889 28.27990596 37.12356525 28.25 41.4375 C28.25773437 42.54931641 28.25773437 42.54931641 28.265625 43.68359375 C27.95672346 46.37739691 27.04070183 48.50753462 26 51 C19.68300117 51.10152782 13.36621321 51.17151879 7.04858398 51.21972656 C4.9000665 51.23982586 2.7516036 51.26710993 0.60327148 51.30175781 C-2.48727905 51.35034913 -5.57710555 51.37298579 -8.66796875 51.390625 C-10.10573921 51.42159271 -10.10573921 51.42159271 -11.57255554 51.45318604 C-15.91177118 51.45464178 -18.31982776 51.41901497 -22.08325195 49.10058594 C-24.25922639 46.71591085 -24.90874661 45.60227236 -25.390625 42.421875 C-24.82866503 37.4991057 -22.46793028 34.31334122 -19.75 30.25 C-19.21656982 29.42959229 -18.68313965 28.60918457 -18.13354492 27.76391602 C-16.4377111 25.16545696 -14.72149469 22.58151812 -13 20 C-12.42910645 19.13938965 -11.85821289 18.2787793 -11.27001953 17.39208984 C-8.20672206 12.77475496 -5.12879564 8.16787096 -2.0246582 3.57788086 C-0.93725975 1.96790448 -0.93725975 1.96790448 0 0 Z " fill="#DD74A4" transform="translate(1395,1299)"/>
<path d="M0 0 C15.76858936 -0.11696025 31.53706103 -0.20504998 47.30597687 -0.25906086 C54.628286 -0.28480911 61.95032514 -0.31989428 69.27246094 -0.37719727 C75.65673303 -0.42713659 82.04080952 -0.45931558 88.42527151 -0.47044247 C91.80384642 -0.47694366 95.1818619 -0.49215081 98.56025696 -0.52865028 C102.33803354 -0.56499366 106.1146546 -0.56994278 109.89257812 -0.56762695 C111.56061996 -0.59459152 111.56061996 -0.59459152 113.26235962 -0.62210083 C120.11910997 -0.57667668 124.72194374 0.48589074 130 5 C135.2266621 10.76273 135.39873973 14.76729398 135.3515625 22.43359375 C134.75982512 28.43644074 132.23386531 31.96324045 127.875 35.9375 C124.47048098 37.86672745 121.72544325 38.11980025 117.89453125 38.09765625 C116.56578979 38.09390991 116.56578979 38.09390991 115.21020508 38.09008789 C114.0889624 38.08098389 112.96771973 38.07187988 111.8125 38.0625 C108.244375 38.041875 104.67625 38.02125 101 38 C101 25.79 101 13.58 101 1 C67.67 1 34.34 1 0 1 C0 0.67 0 0.34 0 0 Z " fill="#AADAED" transform="translate(1194,1004)"/>
<path d="M0 0 C8.91 0 17.82 0 27 0 C27.3125 8.0625 27.3125 8.0625 27.38793945 10.55883789 C27.77245968 18.37180246 30.7387754 23.93518441 35.1875 30.3125 C39 35.78738739 39 35.78738739 39 38 C36.23723823 37.47731534 33.6739124 36.89130413 31 36 C26.64705888 35.68275175 22.45631203 35.41054037 18.375 37.0625 C13.95708854 38.80641242 9.4112872 37.47042907 5 36 C3.35720783 35.88207001 1.70947306 35.82488326 0.0625 35.8125 C-0.79214844 35.79832031 -1.64679688 35.78414062 -2.52734375 35.76953125 C-5.16222662 36.01512065 -6.68685071 36.77823221 -9 38 C-9.99 38 -10.98 38 -12 38 C-10.75955863 34.32612448 -9.01371538 31.61692207 -6.67358398 28.54541016 C0.20413411 19.25104966 0.08285515 11.4340103 0 0 Z " fill="#E7EAEC" transform="translate(1417,1248)"/>
<path d="M0 0 C16.42550788 9.3860045 26.12654731 23.07584946 32.3125 40.75 C33.05336309 44.2522619 33.14570278 47.43028186 33 51 C32.46117187 50.79503906 31.92234375 50.59007812 31.3671875 50.37890625 C20.57282147 46.84282083 12.31338508 47.55969932 0 47 C0 31.49 0 15.98 0 0 Z " fill="#FCC9BC" transform="translate(1295,942)"/>
<path d="M0 0 C14.85 0 29.7 0 45 0 C45 3.63 45 7.26 45 11 C30.15 11 15.3 11 0 11 C0 7.37 0 3.74 0 0 Z " fill="#C7E1ED" transform="translate(1408,1223)"/>
</svg>
