<?xml version="1.0" standalone="no"?>
<!DOCTYPE svg PUBLIC "-//W3C//DTD SVG 20010904//EN"
 "http://www.w3.org/TR/2001/REC-SVG-20010904/DTD/svg10.dtd">
<svg version="1.0" xmlns="http://www.w3.org/2000/svg"
 width="16.000000pt" height="16.000000pt" viewBox="0 0 16.000000 16.000000"
 preserveAspectRatio="xMidYMid meet">

<g transform="translate(0.000000,16.000000) scale(0.100000,-0.100000)"
fill="#000000" stroke="none">
<path d="M50 104 c0 -20 26 -41 38 -29 3 3 1 5 -5 5 -6 0 -13 7 -17 15 -4 10
1 15 15 15 11 0 18 -4 14 -9 -3 -5 -1 -12 5 -16 5 -3 10 3 10 13 0 14 -8 21
-30 24 -26 4 -30 1 -30 -18z"/>
<path d="M110 35 c0 -8 7 -15 16 -15 14 0 14 3 4 15 -7 8 -14 15 -16 15 -2 0
-4 -7 -4 -15z"/>
</g>
</svg>
