<?xml version="1.0" standalone="no"?>
<!DOCTYPE svg PUBLIC "-//W3C//DTD SVG 20010904//EN"
 "http://www.w3.org/TR/2001/REC-SVG-20010904/DTD/svg10.dtd">
<svg version="1.0" xmlns="http://www.w3.org/2000/svg"
 width="578.000000pt" height="431.000000pt" viewBox="0 0 578.000000 431.000000"
 preserveAspectRatio="xMidYMid meet">

<g transform="translate(0.000000,431.000000) scale(0.100000,-0.100000)"
fill="#000000" stroke="none">
<path d="M1005 3233 c-60 -13 -162 -28 -225 -31 l-115 -7 1 -66 c1 -38 9 -79
18 -97 15 -29 15 -33 -13 -89 -43 -87 -52 -126 -58 -268 -4 -106 -9 -134 -24
-150 -61 -68 -36 -174 48 -200 14 -4 25 -17 29 -33 29 -139 117 -264 240 -342
l45 -28 -66 -43 c-36 -24 -65 -46 -65 -50 0 -4 -28 -29 -61 -56 -34 -26 -86
-78 -115 -116 -103 -132 -144 -255 -144 -434 l0 -113 658 0 658 0 23 -31 c43
-58 130 -75 200 -39 54 27 81 85 81 173 0 61 2 67 20 67 64 0 113 65 90 119
-9 23 -9 38 0 66 9 28 9 43 0 66 -10 23 -10 36 -1 55 17 38 14 59 -15 93 -19
24 -34 31 -60 31 l-34 0 0 155 c0 142 2 157 20 175 25 25 26 74 1 99 -27 27
-69 33 -211 29 -114 -3 -123 -5 -141 -27 -25 -31 -25 -83 1 -106 18 -16 20
-31 20 -136 l0 -119 -44 6 c-36 5 -47 3 -65 -15 -11 -11 -21 -31 -21 -42 0
-19 -4 -18 -47 17 -27 21 -73 61 -103 89 -30 28 -70 57 -87 64 -18 7 -33 16
-33 20 0 3 30 26 67 51 102 68 191 197 208 301 6 33 13 43 45 59 52 27 70 55
70 111 0 35 -6 55 -24 76 -21 25 -24 41 -29 153 -3 71 -13 149 -22 180 -59
194 -226 350 -422 394 -97 22 -167 19 -298 -11z m305 -45 c167 -40 320 -193
364 -363 27 -102 21 -119 -18 -46 -47 90 -112 160 -193 209 -142 85 -266 101
-448 59 -60 -14 -144 -27 -185 -29 l-75 -3 -17 35 c-9 19 -20 47 -23 61 l-6
26 83 7 c46 4 133 18 193 31 61 13 124 26 140 28 38 6 127 -1 185 -15z m-360
-381 c61 -16 104 -20 230 -20 148 0 231 12 321 48 11 4 25 -2 38 -16 17 -19
21 -35 21 -96 l0 -73 -380 0 -380 0 0 75 c0 63 3 78 21 96 13 13 27 18 37 14
9 -4 51 -16 92 -28z m631 -217 c17 -10 19 -22 19 -121 0 -129 7 -122 -136
-138 -136 -16 -149 -15 -205 24 -28 19 -63 35 -78 35 -14 0 -50 -16 -79 -37
l-53 -36 -131 16 c-72 9 -135 20 -140 25 -5 5 -7 58 -6 118 l3 109 205 5 c391
10 581 10 601 0z m-871 -150 l0 -79 -32 5 c-35 6 -78 45 -78 70 0 28 21 55 53
69 55 24 57 22 57 -65z m1018 54 c17 -11 22 -24 22 -54 0 -43 -22 -65 -70 -72
-25 -3 -25 -2 -28 76 l-3 78 28 -6 c15 -4 38 -14 51 -22z m-973 -191 c11 -6
79 -18 152 -28 130 -16 133 -16 175 4 24 11 55 30 70 42 l28 23 44 -32 c74
-53 86 -55 236 -37 75 10 145 24 159 32 l24 15 -7 -38 c-13 -71 -65 -163 -124
-220 -235 -232 -619 -166 -757 131 -35 74 -57 164 -33 134 7 -9 22 -20 33 -26z
m1345 -198 c10 -12 10 -18 0 -30 -10 -12 -38 -15 -130 -15 -131 0 -150 4 -150
30 0 26 11 28 146 29 97 1 124 -2 134 -14z m-30 -170 l0 -75 -105 0 -105 0 0
75 0 75 105 0 105 0 0 -75z m-1058 -174 c4 -109 7 -124 36 -184 18 -37 49 -79
68 -95 33 -28 35 -32 32 -85 l-3 -55 -117 94 c-65 52 -118 98 -118 102 0 4 9
39 19 79 l19 71 -49 48 -49 48 23 24 c22 24 103 71 123 72 8 0 13 -39 16 -119z
m278 65 c0 -41 -5 -53 -34 -82 -38 -38 -86 -45 -135 -19 -34 17 -65 86 -56
124 l5 26 110 0 110 0 0 -49z m119 34 c21 -10 53 -31 70 -46 l32 -27 -51 -52
-52 -53 17 -58 c9 -33 18 -66 21 -75 3 -12 -31 -45 -115 -112 -65 -53 -122
-93 -125 -90 -3 4 -6 27 -6 52 0 41 5 51 44 88 76 73 106 164 106 321 0 43 4
72 10 72 6 0 28 -9 49 -20z m652 -67 c8 -73 9 -70 -28 -76 -53 -9 -83 -42 -83
-92 0 -22 5 -46 12 -53 9 -9 9 -15 0 -24 -14 -14 -16 -94 -3 -103 6 -3 5 -18
-3 -37 -25 -59 15 -128 74 -128 27 0 28 -2 32 -57 6 -71 -15 -122 -55 -141
-38 -18 -88 -8 -118 24 -24 25 -24 28 -27 257 -2 128 -1 278 3 335 l7 102 94
0 c52 0 94 -3 95 -7z m-1207 -87 l38 -33 -21 -76 c-12 -43 -21 -78 -21 -80 0
-2 67 -57 150 -122 l149 -120 1 -57 0 -58 -165 0 -164 0 -3 63 c-3 54 -5 62
-23 62 -18 0 -20 -8 -23 -62 l-3 -63 -111 0 -111 0 6 108 c7 147 44 247 132
362 43 56 101 109 120 109 6 0 27 -15 49 -33z m769 -25 l57 -60 0 -113 c0
-104 2 -116 25 -150 14 -20 42 -44 65 -54 l40 -18 0 -63 0 -63 -110 0 -109 0
-3 63 c-3 54 -5 62 -23 62 -18 0 -20 -8 -23 -63 l-3 -62 -167 2 -167 3 -3 51
-3 50 139 112 c76 61 145 118 152 127 12 14 11 28 -5 92 l-19 76 39 34 c21 18
44 33 50 33 7 0 37 -27 68 -59z m161 43 c13 -13 16 -45 16 -195 0 -98 -4 -179
-8 -179 -5 0 -19 12 -33 26 -23 24 -24 32 -27 181 -2 85 -1 161 2 169 7 19 31
18 50 -2z m-641 -67 c35 -11 76 -5 129 18 15 6 16 3 8 -25 -13 -45 -56 -116
-82 -134 -20 -15 -24 -14 -46 7 -29 27 -67 92 -76 131 -6 25 -5 28 11 21 10
-4 35 -13 56 -18z m1036 -16 c7 -13 7 -23 -2 -35 -17 -24 -155 -19 -170 6 -21
32 8 48 89 48 61 0 75 -3 83 -19z m-1 -140 c5 -32 -12 -41 -85 -41 -43 0 -66
5 -77 16 -38 37 -8 55 84 52 70 -3 75 -4 78 -27z m-9 -106 c6 -3 11 -15 11
-26 0 -30 -37 -37 -151 -30 -22 1 -33 30 -18 47 16 19 131 26 158 9z"/>
<path d="M903 2530 c-47 -19 -56 -78 -18 -115 31 -32 69 -32 102 1 20 20 24
31 19 57 -4 17 -12 37 -19 43 -18 17 -59 23 -84 14z"/>
<path d="M1376 2515 c-38 -38 -23 -101 28 -118 60 -20 113 66 70 114 -21 23
-76 25 -98 4z"/>
<path d="M986 2214 c-20 -20 -20 -47 0 -87 72 -143 249 -170 351 -54 45 51 59
101 39 132 l-16 25 -180 0 c-149 0 -181 -3 -194 -16z m334 -52 c0 -5 -13 -27
-30 -50 -20 -28 -41 -44 -67 -51 -50 -14 -55 -14 -102 5 -36 14 -81 67 -81 95
0 5 59 9 140 9 77 0 140 -4 140 -8z"/>
<path d="M1096 2151 c-6 -10 24 -25 32 -16 3 3 0 5 -7 5 -7 0 -9 5 -6 10 3 6
2 10 -4 10 -5 0 -12 -4 -15 -9z"/>
<path d="M1280 2151 c0 -6 4 -13 10 -16 6 -3 7 1 4 9 -7 18 -14 21 -14 7z"/>
<path d="M1246 2137 c3 -10 9 -15 12 -12 3 3 0 11 -7 18 -10 9 -11 8 -5 -6z"/>
<path d="M1078 2123 c7 -3 16 -2 19 1 4 3 -2 6 -13 5 -11 0 -14 -3 -6 -6z"/>
<path d="M1870 2770 c-57 -57 9 -153 85 -124 24 10 46 60 39 89 -13 53 -86 73
-124 35z m75 -55 c0 -13 -8 -21 -22 -23 -19 -3 -23 1 -23 23 0 22 4 26 23 23
14 -2 22 -10 22 -23z"/>
<path d="M2063 2658 c-74 -19 -97 -110 -44 -170 25 -28 36 -33 76 -33 40 0 51
5 76 33 72 81 -2 198 -108 170z m75 -66 c27 -35 1 -92 -43 -92 -54 0 -74 83
-26 106 27 14 50 9 69 -14z"/>
<path d="M1905 2368 c-48 -28 -57 -70 -24 -112 41 -52 129 -22 129 45 0 53
-62 93 -105 67z m50 -68 c0 -29 -32 -41 -41 -16 -9 24 4 48 23 44 12 -2 18
-12 18 -28z"/>
</g>
</svg>
